<svg width="120" height="120" viewBox="0 0 120 120" fill="none" xmlns="http://www.w3.org/2000/svg">
<path d="M111.812 106.226H105.342L105.939 105.517C107.438 103.748 108.458 101.625 108.903 99.349C109.348 97.0734 109.202 94.7217 108.479 92.5185L102.634 74.5103C101.922 72.2963 100.656 70.3009 98.9568 68.7129C97.2576 67.1248 95.1813 65.9967 92.9243 65.4354L90.0196 64.7023C89.4417 63.8902 88.6979 63.21 87.8375 62.7066C86.9772 62.2033 86.0197 61.8883 85.0285 61.7826L85.0303 54.6102C85.0302 54.3892 84.9865 54.1704 84.9017 53.9663C84.817 53.7622 84.6929 53.5767 84.5365 53.4206C84.3801 53.2644 84.1944 53.1406 83.9902 53.0562C83.7859 52.9718 83.5671 52.9284 83.346 52.9286H83.3456C82.8993 52.9281 82.4711 53.1049 82.1552 53.4201C81.8392 53.7353 81.6614 54.163 81.6608 54.6093L81.659 61.7429H78.2949L74.1277 60.6911C73.6135 60.5625 73.1489 60.2843 72.7929 59.8916C72.4369 59.4989 72.2055 59.0094 72.1278 58.4851L71.1704 52.0689C75.0322 49.0354 77.893 44.949 78.7569 40.0666H80.1467C80.6623 40.0666 81.1746 39.985 81.6647 39.8248L81.6629 46.7362C81.663 46.9573 81.7068 47.1761 81.7915 47.3802C81.8762 47.5843 82.0003 47.7697 82.1567 47.9259C82.3131 48.082 82.4988 48.2059 82.703 48.2903C82.9073 48.3747 83.1262 48.418 83.3472 48.4179H83.3476C83.7939 48.4184 84.2221 48.2416 84.5381 47.9264C84.854 47.6112 85.0318 47.1834 85.0324 46.7371C85.0333 45.3965 85.038 29.6894 85.038 24.5133C85.039 21.6301 84.4714 18.775 83.3677 16.1115C82.264 13.4479 80.6458 11.0282 78.6058 8.99075C76.5658 6.95332 74.144 5.3382 71.479 4.23785C68.8141 3.13749 65.9583 2.5735 63.0751 2.57815H56.925L56.8529 2.57839C56.8396 2.57839 56.8266 2.57951 56.8131 2.57951C51.0097 2.59926 45.4509 4.91898 41.3549 9.03027C37.259 13.1416 34.96 18.709 34.9619 24.5124C34.9619 30.1584 34.9585 24.3572 34.9716 61.7824C33.9804 61.8882 33.023 62.2032 32.1626 62.7065C31.3022 63.2098 30.5585 63.89 29.9805 64.7021L27.0758 65.4351C24.8189 65.9965 22.7425 67.1246 21.0433 68.7126C19.3441 70.3007 18.0784 72.2961 17.3659 74.51L11.5209 92.5183C10.7983 94.7215 10.6524 97.073 11.0971 99.3486C11.5419 101.624 12.5624 103.748 14.0614 105.517L14.6579 106.226H8.18822C7.45206 106.224 6.72282 106.368 6.04224 106.648C5.36166 106.929 4.74312 107.341 4.22202 107.861C3.70091 108.381 3.28749 108.999 3.0054 109.679C2.72332 110.359 2.57812 111.088 2.57812 111.824C2.57812 112.56 2.72332 113.289 3.0054 113.969C3.28749 114.649 3.70091 115.267 4.22202 115.787C4.74312 116.307 5.36166 116.719 6.04224 116.999C6.72282 117.28 7.45206 117.423 8.18822 117.422H111.812C112.548 117.424 113.278 117.28 113.958 116.999C114.639 116.719 115.257 116.307 115.779 115.787C116.3 115.267 116.713 114.649 116.995 113.969C117.277 113.289 117.423 112.56 117.423 111.824C117.423 111.088 117.277 110.359 116.995 109.679C116.713 108.999 116.3 108.381 115.778 107.861C115.257 107.341 114.639 106.929 113.958 106.648C113.277 106.368 112.548 106.224 111.812 106.226V106.226ZM99.4286 75.5459L105.274 93.5541C105.819 95.2153 105.929 96.9884 105.593 98.7042C105.258 100.42 104.488 102.021 103.358 103.355L100.943 106.226H97.8385C98.1852 105.297 98.3627 104.314 98.3624 103.323C98.3604 102.398 97.9915 101.511 97.3365 100.858C96.6816 100.204 95.7941 99.837 94.8689 99.8369H91.3231V68.7663C91.3231 68.6763 91.3198 68.5871 91.3164 68.4978C91.5394 68.6138 97.4105 69.3282 99.4286 75.5459V75.5459ZM94.8691 103.199C94.9019 103.199 94.9334 103.212 94.9566 103.235C94.9798 103.259 94.9929 103.29 94.993 103.323C94.9928 104.366 94.6609 105.383 94.0453 106.226H25.9549C25.3393 105.383 25.0074 104.366 25.0072 103.323C25.0072 103.307 25.0104 103.29 25.0166 103.275C25.0229 103.26 25.032 103.247 25.0435 103.235C25.055 103.224 25.0687 103.215 25.0837 103.209C25.0987 103.202 25.1148 103.199 25.131 103.199H94.8691ZM81.6658 35.2398C81.6511 35.6329 81.4847 36.0051 81.2014 36.2781C80.9182 36.5512 80.5401 36.7038 80.1467 36.704H79.0217L79.0387 29.8894H80.1492C80.5454 29.8896 80.9259 30.0446 81.2095 30.3214C81.493 30.5982 81.6572 30.9748 81.6669 31.371L81.6658 35.2398ZM52.237 10.6383C52.2326 9.40732 52.7135 8.22421 53.5754 7.3453C54.4373 6.46639 55.6108 5.96248 56.8416 5.94273C56.8695 5.94273 56.8972 5.94071 56.925 5.94071H63.0751C65.516 5.93676 67.9338 6.41426 70.1899 7.34585C72.4461 8.27745 74.4964 9.64486 76.2234 11.3698C77.9505 13.0948 79.3204 15.1434 80.2547 17.3984C81.189 19.6534 81.6695 22.0706 81.6685 24.5115L81.668 26.5271H68.0594C63.869 26.5268 59.8498 24.8643 56.8836 21.9044C53.9173 18.9445 52.2463 14.9288 52.2372 10.7384V10.6383H52.237ZM52.7578 22.2817C54.547 24.6459 56.8598 26.5633 59.5147 27.8833C62.1696 29.2033 65.0943 29.8899 68.0592 29.8894H75.6688L75.6508 37.0587C75.6508 42.7643 72.3027 47.1001 68.5279 49.8691C68.5032 49.883 64.0035 53.2999 59.9998 53.4111C56.3015 53.3082 51.6665 49.9795 51.4756 49.8711C47.6993 47.1012 44.3489 42.7627 44.3489 37.0508C44.3107 28.6383 44.3477 36.783 44.308 28.0255C44.3071 27.8209 44.3468 27.6182 44.4246 27.429C44.5024 27.2399 44.6168 27.0679 44.7612 26.9231C44.9057 26.7783 45.0774 26.6635 45.2664 26.5852C45.4554 26.507 45.658 26.4669 45.8626 26.4672C47.2847 26.4667 48.6795 26.0762 49.8952 25.3383C51.1109 24.6003 52.101 23.5431 52.7578 22.2817L52.7578 22.2817ZM69.9589 61.7429H50.0413C50.6556 60.9346 51.0561 59.9845 51.2056 58.9804L51.9263 54.1502C54.9827 55.8897 57.9572 56.731 59.9641 56.7739C59.9762 56.7741 59.9881 56.7743 60.0003 56.7743C60.0124 56.7743 60.0243 56.7741 60.0365 56.7739C62.0433 56.731 65.0179 55.8899 68.0743 54.1502L68.7949 58.9804C68.9441 59.9845 69.3445 60.9347 69.9589 61.7429V61.7429ZM39.8537 40.0666H41.2439C42.1071 44.9441 44.963 49.0311 48.8299 52.0689L47.8726 58.4851C47.7949 59.0094 47.5635 59.4988 47.2075 59.8915C46.8515 60.2842 46.3871 60.5624 45.8729 60.6909L41.7052 61.7427H38.3411L38.3355 39.8248C38.8256 39.9851 39.338 40.0667 39.8537 40.0666V40.0666ZM38.3343 35.2398L38.3334 31.371C38.3432 30.9748 38.5073 30.5982 38.7909 30.3214C39.0744 30.0446 39.4549 29.8896 39.8512 29.8894H40.947L40.978 36.704H39.8537C39.4602 36.7039 39.0821 36.5513 38.7988 36.2782C38.5154 36.0052 38.349 35.633 38.3343 35.2398V35.2398ZM49.5135 7.4727C49.0863 8.4733 48.8666 9.55013 48.8675 10.6381C48.8526 13.1252 49.3268 15.591 50.2631 17.8952V18.7139C50.2606 19.8793 49.7958 20.9961 48.9709 21.8193C48.1459 22.6425 47.0282 23.1048 45.8628 23.1049C44.8188 23.1033 43.8014 23.434 42.958 24.0493C42.1146 24.6645 41.489 25.5323 41.1718 26.5269H39.8512C39.3353 26.5267 38.8226 26.6085 38.3323 26.7691L38.3316 24.5104C38.3277 20.8887 39.3845 17.3452 41.3717 14.3174C43.3588 11.2896 46.1893 8.91008 49.5135 7.47271V7.4727ZM14.7267 93.5544L20.5717 75.5461C22.5889 69.3311 28.4567 68.616 28.6839 68.498C28.6806 68.5873 28.6772 68.6763 28.6772 68.7665V78.7303C28.6781 79.1766 28.856 79.6042 29.1719 79.9194C29.4877 80.2346 29.9157 80.4116 30.3619 80.4116C30.8082 80.4116 31.2362 80.2346 31.552 79.9194C31.8679 79.6042 32.0458 79.1766 32.0467 78.7303V68.7665C32.0488 67.7948 32.4363 66.8637 33.1241 66.1773C33.8119 65.491 34.7439 65.1055 35.7156 65.1054H84.285C85.2567 65.1055 86.1886 65.491 86.8765 66.1773C87.5643 66.8637 87.9517 67.7948 87.9539 68.7665V99.8369H32.0465V86.5899C32.0454 86.1438 31.8675 85.7163 31.5516 85.4012C31.2358 85.0861 30.8079 84.9092 30.3617 84.9092C29.9156 84.9092 29.4877 85.0861 29.1718 85.4012C28.856 85.7163 28.678 86.1438 28.677 86.5899V99.8369H25.1313C24.206 99.837 23.3186 100.204 22.6636 100.858C22.0087 101.511 21.6397 102.398 21.6377 103.323C21.6375 104.314 21.815 105.297 22.1617 106.226H19.0578L16.6421 103.355C15.5119 102.021 14.7424 100.42 14.4071 98.7041C14.0718 96.9884 14.1818 95.2154 14.7267 93.5544L14.7267 93.5544ZM111.812 114.059H8.18822C7.89427 114.06 7.6031 114.003 7.33135 113.891C7.05961 113.778 6.81264 113.614 6.60458 113.406C6.39651 113.199 6.23145 112.952 6.11882 112.68C6.00619 112.409 5.94822 112.118 5.94822 111.824C5.94822 111.53 6.00619 111.239 6.11882 110.967C6.23145 110.696 6.39651 110.449 6.60458 110.242C6.81264 110.034 7.05961 109.869 7.33135 109.757C7.6031 109.645 7.89427 109.588 8.18822 109.589H111.812C112.106 109.588 112.397 109.645 112.669 109.757C112.941 109.87 113.188 110.034 113.396 110.242C113.604 110.449 113.769 110.696 113.881 110.968C113.994 111.239 114.052 111.53 114.052 111.824C114.052 112.118 113.994 112.409 113.881 112.681C113.769 112.952 113.604 113.199 113.396 113.406C113.188 113.614 112.941 113.779 112.669 113.891C112.397 114.003 112.106 114.06 111.812 114.059V114.059Z" fill="url(#paint0_linear_401_3124)"/>
<path d="M59.9999 90.3551C61.5218 90.3518 63.0087 89.8976 64.2725 89.0497C65.5364 88.2019 66.5206 86.9984 67.1007 85.5914C67.6809 84.1844 67.8311 82.637 67.5322 81.1448C67.2333 79.6525 66.4988 78.2823 65.4215 77.2072C64.3442 76.1322 62.9725 75.4006 61.4796 75.1049C59.9867 74.8091 58.4396 74.9625 57.0339 75.5457C55.6281 76.1288 54.4267 77.1155 53.5815 78.3812C52.7363 79.6468 52.2852 81.1346 52.2852 82.6565C52.2896 84.6997 53.1044 86.6578 54.5507 88.101C55.997 89.5443 57.9567 90.3549 59.9999 90.3551V90.3551ZM59.9999 78.3207C60.8571 78.3225 61.6945 78.5784 62.4064 79.0559C63.1182 79.5335 63.6725 80.2113 63.9993 81.0038C64.3261 81.7963 64.4106 82.6678 64.2423 83.5083C64.0739 84.3488 63.6602 85.1205 63.0535 85.726C62.4467 86.3315 61.6741 86.7436 60.8332 86.9101C59.9923 87.0767 59.121 86.9903 58.3292 86.6618C57.5375 86.3334 56.8608 85.7776 56.3848 85.0647C55.9087 84.3519 55.6547 83.5139 55.6547 82.6567C55.6572 81.5059 56.1161 80.4031 56.9307 79.5902C57.7453 78.7773 58.8491 78.3207 59.9999 78.3207V78.3207Z" fill="url(#paint1_linear_401_3124)"/>
<defs>
<linearGradient id="paint0_linear_401_3124" x1="-5.46098" y1="60" x2="123.165" y2="60" gradientUnits="userSpaceOnUse">
<stop stop-color="#8F7047"/>
<stop offset="0.509514" stop-color="#DABD9A"/>
<stop offset="1" stop-color="#A58A63"/>
</linearGradient>
<linearGradient id="paint1_linear_401_3124" x1="51.2074" y1="82.6566" x2="68.4519" y2="82.6566" gradientUnits="userSpaceOnUse">
<stop stop-color="#8F7047"/>
<stop offset="0.509514" stop-color="#DABD9A"/>
<stop offset="1" stop-color="#A58A63"/>
</linearGradient>
</defs>
</svg>
