<svg width="120" height="120" viewBox="0 0 120 120" fill="none" xmlns="http://www.w3.org/2000/svg">
<path d="M110.853 67.1954C112.562 66.9185 114.116 66.0425 115.238 64.7242C116.36 63.4058 116.976 61.7312 116.976 60C116.976 58.2689 116.36 56.5943 115.238 55.2759C114.116 53.9576 112.562 53.0816 110.853 52.8047C109.363 42.3466 104.692 32.5999 97.4742 24.8866L105.852 16.5092C107.373 17.4519 109.188 17.8024 110.952 17.4941C112.715 17.1857 114.304 16.2401 115.415 14.837C116.527 13.4339 117.084 11.6712 116.981 9.88416C116.877 8.09707 116.121 6.41025 114.855 5.14448C113.59 3.87871 111.903 3.12229 110.116 3.01906C108.329 2.91583 106.566 3.473 105.163 4.58461C103.76 5.69622 102.814 7.28473 102.506 9.04804C102.197 10.8114 102.548 12.6265 103.491 14.1482L95.1132 22.5256C87.4 15.3076 77.6532 10.6368 67.1951 9.14676C66.9182 7.4379 66.0422 5.88336 64.7239 4.7614C63.4055 3.63945 61.7309 3.02332 59.9997 3.02332C58.2686 3.02332 56.594 3.63945 55.2756 4.7614C53.9573 5.88336 53.0813 7.4379 52.8044 9.14676C42.3462 10.6368 32.5994 15.3077 24.8863 22.5258L16.5089 14.1485C17.4519 12.6266 17.8026 10.8112 17.4945 9.04755C17.1863 7.28391 16.2406 5.69506 14.8374 4.58317C13.4342 3.47127 11.6712 2.91388 9.88384 3.01701C8.09646 3.12014 6.40932 3.8766 5.14328 5.14251C3.87725 6.40842 3.12064 8.09549 3.01734 9.88286C2.91404 11.6702 3.47126 13.4332 4.58302 14.8366C5.69479 16.2399 7.28355 17.1857 9.04715 17.494C10.8108 17.8024 12.6262 17.4518 14.1482 16.509L22.5255 24.8863C15.3075 32.5996 10.6367 42.3463 9.14668 52.8045C7.43779 53.0813 5.8832 53.9573 4.76121 55.2757C3.63921 56.594 3.02305 58.2687 3.02302 59.9998C3.02299 61.731 3.6391 63.4057 4.76106 64.7241C5.88302 66.0424 7.43758 66.9185 9.14646 67.1954C10.6365 77.6535 15.3073 87.4003 22.5253 95.1135L14.1479 103.491C12.626 102.548 10.8105 102.197 9.0468 102.505C7.28309 102.814 5.69418 103.759 4.58224 105.163C3.4703 106.566 2.9129 108.329 3.01604 110.116C3.11917 111.904 3.87566 113.591 5.14163 114.857C6.40759 116.123 8.09473 116.88 9.88218 116.983C11.6696 117.086 13.4327 116.529 14.8361 115.417C16.2395 114.306 17.1853 112.717 17.4937 110.953C17.8021 109.189 17.4515 107.374 16.5087 105.852L24.886 97.4745C32.5993 104.693 42.346 109.363 52.8042 110.853C53.0811 112.562 53.9571 114.117 55.2755 115.239C56.5938 116.361 58.2685 116.977 59.9996 116.977C61.7308 116.977 63.4054 116.361 64.7238 115.239C66.0422 114.117 66.9182 112.562 67.1951 110.853C77.6532 109.363 87.3999 104.692 95.1132 97.4745L103.491 105.852C102.548 107.374 102.197 109.189 102.506 110.952C102.814 112.715 103.76 114.304 105.163 115.416C106.566 116.527 108.329 117.084 110.116 116.981C111.903 116.878 113.59 116.121 114.855 114.856C116.121 113.59 116.878 111.903 116.981 110.116C117.084 108.329 116.527 106.566 115.415 105.163C114.304 103.76 112.715 102.814 110.952 102.506C109.188 102.198 107.373 102.548 105.852 103.491L97.4742 95.1135C104.692 87.4003 109.363 77.6535 110.853 67.1954L110.853 67.1954ZM59.9997 102.397C58.4463 102.399 56.934 102.896 55.6825 103.816C54.4309 104.737 53.5055 106.032 53.0406 107.514C32.2336 104.479 15.5207 87.766 12.4856 66.9592C13.9688 66.496 15.2653 65.571 16.1858 64.3191C17.1063 63.0672 17.6028 61.5539 17.6028 60C17.6028 58.4461 17.1063 56.9329 16.1858 55.681C15.2653 54.4291 13.9688 53.5041 12.4856 53.0409C15.5207 32.2341 32.2338 15.521 53.0406 12.4859C53.5038 13.9691 54.4288 15.2656 55.6807 16.1861C56.9326 17.1066 58.4458 17.6031 59.9997 17.6031C61.5536 17.6031 63.0669 17.1066 64.3188 16.1861C65.5706 15.2656 66.4957 13.9691 66.9589 12.4859C87.7656 15.5208 104.479 32.2341 107.514 53.0409C106.031 53.5041 104.734 54.4291 103.814 55.681C102.893 56.9329 102.397 58.4461 102.397 60C102.397 61.5539 102.893 63.0672 103.814 64.3191C104.734 65.571 106.031 66.496 107.514 66.9592C104.479 87.766 87.7656 104.479 66.9589 107.514C66.494 106.032 65.5685 104.737 64.317 103.816C63.0655 102.896 61.5532 102.399 59.9997 102.397V102.397ZM113.638 60C113.638 60.7816 113.406 61.5455 112.972 62.1953C112.538 62.8451 111.921 63.3516 111.199 63.6507C110.477 63.9498 109.682 64.028 108.916 63.8755C108.149 63.7231 107.445 63.3467 106.892 62.7941C106.34 62.2415 105.964 61.5374 105.811 60.7709C105.659 60.0044 105.737 59.2099 106.036 58.4879C106.335 57.7659 106.841 57.1487 107.491 56.7146C108.141 56.2804 108.905 56.0486 109.687 56.0486C110.734 56.0498 111.739 56.4666 112.479 57.2073C113.22 57.9481 113.637 58.9524 113.638 60ZM109.687 6.36179C110.468 6.36179 111.232 6.59353 111.882 7.02772C112.532 7.46191 113.038 8.07904 113.337 8.80107C113.636 9.5231 113.715 10.3176 113.562 11.0841C113.41 11.8506 113.033 12.5547 112.481 13.1073C111.928 13.6599 111.224 14.0362 110.457 14.1887C109.691 14.3412 108.896 14.2629 108.174 13.9639C107.452 13.6648 106.835 13.1583 106.401 12.5085C105.967 11.8587 105.735 11.0947 105.735 10.3132C105.736 9.26561 106.153 8.26126 106.894 7.52049C107.635 6.77972 108.639 6.36302 109.687 6.36179ZM59.9997 6.36179C60.7813 6.36179 61.5452 6.59353 62.195 7.02772C62.8448 7.46191 63.3513 8.07904 63.6504 8.80107C63.9494 9.5231 64.0277 10.3176 63.8752 11.0841C63.7228 11.8506 63.3464 12.5547 62.7938 13.1073C62.2412 13.6599 61.5371 14.0362 60.7706 14.1887C60.0041 14.3412 59.2096 14.2629 58.4876 13.9639C57.7656 13.6648 57.1484 13.1583 56.7142 12.5085C56.2801 11.8587 56.0483 11.0947 56.0483 10.3132C56.0495 9.26561 56.4662 8.26126 57.207 7.52049C57.9478 6.77972 58.9521 6.36302 59.9997 6.36179V6.36179ZM6.36148 10.3132C6.36148 9.5317 6.59323 8.76773 7.02742 8.11792C7.4616 7.46811 8.07873 6.96165 8.80076 6.66257C9.52279 6.3635 10.3173 6.28525 11.0838 6.43771C11.8503 6.59018 12.5544 6.96652 13.107 7.51913C13.6596 8.07175 14.0359 8.77583 14.1884 9.54233C14.3409 10.3088 14.2626 11.1033 13.9635 11.8254C13.6645 12.5474 13.158 13.1645 12.5082 13.5987C11.8584 14.0329 11.0944 14.2646 10.3129 14.2646C9.26529 14.2634 8.26092 13.8468 7.52014 13.106C6.77936 12.3652 6.36267 11.3608 6.36148 10.3132V10.3132ZM6.36148 60C6.36148 59.2185 6.59323 58.4546 7.02742 57.8047C7.4616 57.1549 8.07873 56.6485 8.80076 56.3494C9.52279 56.0503 10.3173 55.9721 11.0838 56.1245C11.8503 56.277 12.5544 56.6533 13.107 57.206C13.6596 57.7586 14.0359 58.4627 14.1884 59.2292C14.3409 59.9957 14.2626 60.7902 13.9635 61.5122C13.6645 62.2342 13.158 62.8513 12.5082 63.2855C11.8584 63.7197 11.0944 63.9515 10.3129 63.9515C9.26529 63.9503 8.26092 63.5336 7.52014 62.7928C6.77937 62.052 6.36267 61.0477 6.36148 60V60ZM10.3129 113.638C9.53139 113.638 8.76742 113.407 8.11761 112.972C7.4678 112.538 6.96134 111.921 6.66226 111.199C6.36319 110.477 6.28494 109.682 6.4374 108.916C6.58987 108.149 6.96621 107.445 7.51882 106.893C8.07144 106.34 8.77552 105.964 9.54202 105.811C10.3085 105.659 11.103 105.737 11.825 106.036C12.5471 106.335 13.1642 106.842 13.5984 107.492C14.0326 108.141 14.2643 108.905 14.2643 109.687C14.2631 110.734 13.8464 111.739 13.1057 112.48C12.3649 113.22 11.3605 113.637 10.3129 113.638V113.638ZM59.9997 113.638C59.2182 113.638 58.4542 113.407 57.8044 112.972C57.1546 112.538 56.6482 111.921 56.3491 111.199C56.05 110.477 55.9717 109.682 56.1242 108.916C56.2767 108.149 56.653 107.445 57.2056 106.893C57.7582 106.34 58.4623 105.964 59.2288 105.811C59.9953 105.659 60.7898 105.737 61.5119 106.036C62.2339 106.335 62.851 106.842 63.2852 107.492C63.7194 108.141 63.9511 108.905 63.9511 109.687C63.95 110.734 63.5333 111.739 62.7925 112.48C62.0517 113.22 61.0473 113.637 59.9997 113.638ZM113.638 109.687C113.638 110.468 113.406 111.232 112.972 111.882C112.538 112.532 111.921 113.038 111.199 113.338C110.477 113.637 109.682 113.715 108.916 113.562C108.149 113.41 107.445 113.034 106.892 112.481C106.34 111.928 105.964 111.224 105.811 110.458C105.659 109.691 105.737 108.897 106.036 108.175C106.335 107.453 106.841 106.836 107.491 106.401C108.141 105.967 108.905 105.735 109.687 105.735C110.734 105.737 111.739 106.153 112.479 106.894C113.22 107.635 113.637 108.639 113.638 109.687Z" fill="url(#paint0_linear_401_3234)"/>
<path d="M94.2358 72.5533C93.8096 72.3734 93.3295 72.3701 92.9009 72.5441C92.4724 72.7181 92.1304 73.0551 91.9502 73.4812C90.8349 76.1199 89.3981 78.6108 87.6723 80.8974C84.8338 79.0252 81.8006 77.4666 78.6258 76.2488C79.785 71.4977 80.419 66.6337 80.5165 61.7442H94.6232C94.5535 63.1652 94.3969 64.5806 94.1544 65.9826C94.0753 66.4383 94.1804 66.9069 94.4466 67.2851C94.7129 67.6634 95.1184 67.9205 95.5742 67.9998C95.6735 68.0169 95.7741 68.0256 95.8749 68.0256C96.2853 68.0249 96.6824 67.8796 96.9964 67.6152C97.3103 67.3508 97.521 66.9841 97.5914 66.5798C97.9677 64.4067 98.1568 62.2054 98.1567 60C98.1652 51.1799 95.1035 42.6318 89.4972 35.8228C89.4777 35.7914 89.4588 35.7595 89.4367 35.7291C89.3626 35.6261 89.2773 35.5316 89.1825 35.4472C85.3122 30.8408 80.407 27.2155 74.8677 24.8674C69.3283 22.5193 63.3121 21.5151 57.3104 21.9368C51.3087 22.3585 45.492 24.1942 40.3354 27.2938C35.1789 30.3934 30.8288 34.6691 27.6407 39.7714C27.5187 39.9655 27.4362 40.1818 27.3978 40.4078C27.3595 40.6339 27.3661 40.8652 27.4172 41.0887C27.4684 41.3122 27.5631 41.5234 27.696 41.7103C27.8288 41.8971 27.9972 42.0559 28.1915 42.1776C28.3858 42.2994 28.6022 42.3816 28.8283 42.4196C29.0544 42.4576 29.2858 42.4506 29.5092 42.3991C29.7326 42.3477 29.9437 42.2526 30.1303 42.1195C30.317 41.9864 30.4755 41.8177 30.597 41.6233C31.1421 40.753 31.7207 39.914 32.3328 39.106C35.1698 40.9766 38.2012 42.5341 41.3739 43.7512C40.2148 48.5023 39.5807 53.3663 39.4832 58.2558H25.376C25.5356 54.9709 26.164 51.7257 27.2421 48.6186C27.3175 48.4022 27.3495 48.173 27.3362 47.9443C27.323 47.7155 27.2648 47.4915 27.165 47.2853C27.0652 47.079 26.9257 46.8944 26.7545 46.742C26.5833 46.5897 26.3838 46.4726 26.1673 46.3974C25.9509 46.3222 25.7217 46.2904 25.4929 46.3038C25.2641 46.3172 25.0403 46.3755 24.8341 46.4755C24.6278 46.5755 24.4434 46.7152 24.2912 46.8865C24.139 47.0578 24.022 47.2574 23.947 47.474C21.8093 53.6418 21.2896 60.2548 22.4373 66.6809C23.585 73.107 26.362 79.1312 30.5026 84.1777C30.5221 84.2091 30.5409 84.2407 30.5628 84.2712C30.637 84.374 30.7222 84.4685 30.8167 84.553C35.0186 89.5532 40.434 93.3907 46.5441 95.6979C52.6543 98.0052 59.2545 98.7048 65.7126 97.7298C72.1707 96.7549 78.2703 94.138 83.427 90.1299C88.5838 86.1217 92.625 80.8566 95.1635 74.8388C95.3435 74.4127 95.3469 73.9326 95.173 73.5039C94.999 73.0753 94.6619 72.7333 94.2358 72.5533H94.2358ZM75.3198 75.1046C70.9139 73.7573 66.349 72.9996 61.7442 72.8514V61.7442H77.0279C76.9342 66.2457 76.3616 70.7244 75.3198 75.1046H75.3198ZM25.3751 61.7442H39.4832C39.5807 66.6337 40.2147 71.4977 41.3739 76.2488C38.2064 77.4639 35.1796 79.0182 32.3465 80.8846C28.1481 75.3522 25.7183 68.6808 25.3751 61.7442V61.7442ZM42.9723 61.7442H58.2558V72.8514C53.6509 72.9996 49.086 73.7573 44.6802 75.1046C43.6386 70.7244 43.066 66.2456 42.9723 61.7442V61.7442ZM58.2558 76.3409V94.4793C54.557 93.6833 51.0595 90.3702 48.2607 84.9477C47.1997 82.864 46.3168 80.6943 45.6214 78.4619C49.7209 77.201 53.9693 76.4878 58.2558 76.3409L58.2558 76.3409ZM61.7442 94.4793V76.3409C66.0307 76.4878 70.2791 77.201 74.3786 78.4621C73.6832 80.6945 72.8003 82.8642 71.7393 84.9479C68.9405 90.3702 65.443 93.6833 61.7442 94.4793L61.7442 94.4793ZM71.7393 35.0523C72.8003 37.1359 73.6832 39.3055 74.3786 41.5379C70.2791 42.7989 66.0307 43.5122 61.7442 43.6591V25.5207C65.443 26.3167 68.9405 29.6298 71.7393 35.0523V35.0523ZM58.2558 25.5207V43.6591C53.9692 43.5122 49.7209 42.7989 45.6214 41.5379C46.3168 39.3055 47.1997 37.1358 48.2607 35.0521C51.0595 29.6298 54.557 26.3167 58.2558 25.5207L58.2558 25.5207ZM61.7442 47.1486C66.349 47.0004 70.9139 46.2427 75.3198 44.8953C76.3615 49.2756 76.9341 53.7543 77.0279 58.2558H61.7442V47.1486ZM94.6249 58.2558H80.5167C80.4192 53.3662 79.7852 48.5021 78.626 43.7509C81.7936 42.5359 84.8203 40.9816 87.6535 39.1154C91.8519 44.6478 94.2817 51.3192 94.6249 58.2558ZM85.3939 36.4251C82.958 37.9979 80.371 39.3235 77.6716 40.3821C76.9226 37.9971 75.9751 35.6791 74.8391 33.4523C73.6485 31.0775 72.139 28.8766 70.3525 26.9105C76.1076 28.7219 81.2915 32.0011 85.3939 36.4251V36.4251ZM34.5823 36.41C38.6849 31.9664 43.8872 28.6836 49.6639 26.893C47.8699 28.8632 46.3548 31.0702 45.1609 33.4523C44.025 35.6792 43.0775 37.9973 42.3284 40.3823C39.6202 39.3201 37.0252 37.9894 34.5823 36.41V36.41ZM44.6802 44.8953C49.086 46.2427 53.6509 47.0004 58.2558 47.1486V58.2558H42.9723C43.0661 53.7543 43.6386 49.2756 44.6802 44.8953L44.6802 44.8953ZM34.606 83.5749C37.042 82.002 39.6289 80.6763 42.3284 79.6177C43.0775 82.0027 44.025 84.3208 45.1609 86.5477C46.3514 88.9225 47.8608 91.1234 49.6472 93.0895C43.8923 91.278 38.7084 87.9988 34.606 83.5749V83.5749ZM70.3477 93.0949C72.1363 91.1276 73.6474 88.9248 74.8391 86.5479C75.975 84.321 76.9225 82.0029 77.6716 79.6179C80.3799 80.6799 82.9748 82.0107 85.4177 83.5902C81.3105 88.0201 76.1148 91.297 70.3477 93.0949Z" fill="url(#paint1_linear_401_3234)"/>
<defs>
<linearGradient id="paint0_linear_401_3234" x1="-4.97533" y1="60.0001" x2="122.692" y2="60.0001" gradientUnits="userSpaceOnUse">
<stop stop-color="#8F7047"/>
<stop offset="0.509514" stop-color="#DABD9A"/>
<stop offset="1" stop-color="#A58A63"/>
</linearGradient>
<linearGradient id="paint1_linear_401_3234" x1="16.5008" y1="60.0001" x2="101.972" y2="60.0001" gradientUnits="userSpaceOnUse">
<stop stop-color="#8F7047"/>
<stop offset="0.509514" stop-color="#DABD9A"/>
<stop offset="1" stop-color="#A58A63"/>
</linearGradient>
</defs>
</svg>
