<svg width="120" height="120" viewBox="0 0 120 120" fill="none" xmlns="http://www.w3.org/2000/svg">
<path d="M105.698 83.5428L104.602 83.089L105.547 82.3722C107.871 80.6155 109.585 78.1731 110.446 75.3898C111.307 72.6065 111.272 69.623 110.346 66.8607C109.42 64.0984 107.649 61.6969 105.284 59.9953C102.919 58.2936 100.08 57.3779 97.1662 57.3775C94.2527 57.377 91.4127 58.2919 89.0473 59.9927C86.6819 61.6936 84.9106 64.0946 83.9835 66.8566C83.0564 69.6186 83.0205 72.6021 83.8807 75.3857C84.7409 78.1692 86.4539 80.6122 88.7776 82.3696L89.7235 83.0875L88.6259 83.5405C85.7791 84.7117 83.2071 86.4622 81.0733 88.681L80.4088 89.3703L79.9766 88.5157C77.5533 83.7232 73.494 79.957 68.5337 77.899L67.438 77.4451L68.3829 76.7284C70.7072 74.9716 72.4209 72.529 73.2818 69.7455C74.1428 66.9621 74.1075 63.9785 73.181 61.2161C72.2545 58.4538 70.4836 56.0524 68.1184 54.351C65.7532 52.6496 62.9133 51.7343 59.9997 51.7343C57.0862 51.7343 54.2462 52.6496 51.881 54.351C49.5159 56.0524 47.745 58.4538 46.8185 61.2161C45.892 63.9785 45.8567 66.9621 46.7176 69.7455C47.5786 72.529 49.2922 74.9716 51.6166 76.7284L52.5615 77.4451L51.4657 77.899C46.5055 79.957 42.4461 83.7233 40.0228 88.5157L39.5907 89.3703L38.9261 88.681C36.7924 86.4622 34.2204 84.7116 31.3736 83.5405L30.276 83.0875L31.2219 82.3696C33.5455 80.6122 35.2584 78.1693 36.1186 75.3858C36.9787 72.6023 36.9428 69.6189 36.0157 66.8569C35.0886 64.095 33.3173 61.6941 30.952 59.9933C28.5866 58.2924 25.7467 57.3776 22.8333 57.3781C19.92 57.3786 17.0803 58.2942 14.7155 59.9958C12.3507 61.6973 10.5801 64.0988 9.6539 66.861C8.72769 69.6233 8.69263 72.6067 9.55366 75.3899C10.4147 78.1731 12.1283 80.6155 14.4525 82.3722L15.3974 83.089L14.3017 83.5428C10.2039 85.2276 6.70009 88.0935 4.23608 91.7757C1.77207 95.4579 0.459309 99.79 0.464861 104.221V117.863C0.465346 118.306 0.641635 118.731 0.955048 119.045C1.26846 119.358 1.6934 119.534 2.13663 119.535H117.863C118.306 119.534 118.731 119.358 119.044 119.045C119.358 118.731 119.534 118.306 119.535 117.863V104.221C119.54 99.79 118.227 95.4579 115.763 91.7757C113.299 88.0935 109.796 85.2276 105.698 83.5428V83.5428ZM81.7748 93.4413L81.7022 93.1333L81.891 92.8794C84.2756 89.6664 87.6126 87.2872 91.4274 86.08C95.2421 84.8728 99.3404 84.8991 103.139 86.1552C106.938 87.4113 110.244 89.8332 112.588 93.0765C114.931 96.3198 116.192 100.219 116.191 104.221V116.191H82.3705V98.5768C82.3707 96.8477 82.1708 95.1244 81.7748 93.4413V93.4413ZM86.6044 71.2904C86.6044 69.2019 87.2237 67.1603 88.384 65.4239C89.5443 63.6874 91.1935 62.3339 93.123 61.5347C95.0525 60.7355 97.1756 60.5264 99.224 60.9339C101.272 61.3413 103.154 62.347 104.631 63.8238C106.107 65.3006 107.113 67.1821 107.52 69.2304C107.928 71.2788 107.719 73.4019 106.92 75.3314C106.12 77.2609 104.767 78.9101 103.03 80.0703C101.294 81.2306 99.2523 81.8499 97.1638 81.8499C94.3642 81.8467 91.6802 80.7332 89.7007 78.7536C87.7211 76.774 86.6076 74.0899 86.6044 71.2904H86.6044ZM71.3294 106.424C70.8862 106.424 70.4612 106.6 70.1478 106.914C69.8344 107.227 69.6581 107.652 69.6576 108.095V116.191H40.9725V98.5768C40.9725 93.5304 42.9771 88.6908 46.5454 85.1225C50.1137 81.5542 54.9534 79.5495 59.9997 79.5495C65.0461 79.5495 69.8857 81.5542 73.454 85.1225C77.0223 88.6908 79.027 93.5304 79.027 98.5768V116.191H73.0012V108.095C73.0007 107.652 72.8244 107.227 72.511 106.914C72.1976 106.6 71.7726 106.424 71.3294 106.424V106.424ZM59.9997 55.0872C62.0882 55.0872 64.1298 55.7064 65.8663 56.8667C67.6028 58.027 68.9562 59.6762 69.7555 61.6057C70.5547 63.5352 70.7638 65.6583 70.3564 67.7067C69.9489 69.755 68.9432 71.6365 67.4665 73.1133C65.9897 74.5901 64.1082 75.5958 62.0598 76.0032C60.0115 76.4106 57.8883 76.2015 55.9588 75.4023C54.0293 74.6031 52.3802 73.2496 51.2199 71.5131C50.0596 69.7766 49.4403 67.735 49.4403 65.6466C49.4435 62.847 50.557 60.163 52.5366 58.1835C54.5162 56.2039 57.2002 55.0903 59.9997 55.0872V55.0872ZM38.2973 93.1334L38.2246 93.4413C37.8286 95.1244 37.6287 96.8477 37.6289 98.5768V116.191H3.80841V104.221C3.80774 100.219 5.06867 96.3198 7.41187 93.0765C9.75508 89.8332 13.0612 87.4113 16.8602 86.1552C20.6591 84.8991 24.7574 84.8728 28.5721 86.08C32.3869 87.2872 35.7239 89.6664 38.1085 92.8794L38.2973 93.1334ZM12.2761 71.2904C12.2762 69.2019 12.8955 67.1604 14.0558 65.4239C15.2161 63.6874 16.8652 62.334 18.7947 61.5347C20.7242 60.7355 22.8473 60.5264 24.8957 60.9339C26.944 61.3413 28.8255 62.347 30.3023 63.8238C31.779 65.3005 32.7847 67.182 33.1922 69.2304C33.5996 71.2787 33.3905 73.4018 32.5913 75.3313C31.7921 77.2608 30.4387 78.91 28.7022 80.0703C26.9657 81.2306 24.9241 81.8499 22.8357 81.8499C20.0361 81.8467 17.3521 80.7332 15.3724 78.7536C13.3928 76.774 12.2793 74.09 12.2761 71.2904Z" fill="url(#paint0_linear_401_3267)"/>
<path d="M73.5695 18.4358C73.7891 18.4364 74.0067 18.3935 74.2096 18.3094C74.4125 18.2253 74.5967 18.1017 74.7515 17.946L82.8229 9.87481C83.135 9.56099 83.31 9.13619 83.3094 8.69355C83.3088 8.25092 83.1327 7.82659 82.8197 7.5136C82.5068 7.20062 82.0824 7.02452 81.6398 7.02393C81.1972 7.02334 80.7724 7.1983 80.4585 7.51045L72.3871 15.5816C72.1533 15.8154 71.9941 16.1134 71.9296 16.4377C71.8651 16.762 71.8982 17.0982 72.0248 17.4037C72.1513 17.7092 72.3656 17.9703 72.6406 18.1541C72.9155 18.3378 73.2388 18.4358 73.5695 18.4358H73.5695Z" fill="url(#paint1_linear_401_3267)"/>
<path d="M45.2487 17.9463C45.5623 18.2598 45.9875 18.4359 46.4309 18.4359C46.8743 18.4358 47.2995 18.2597 47.6129 17.9461C47.9264 17.6326 48.1025 17.2074 48.1025 16.764C48.1025 16.3206 47.9263 15.8954 47.6128 15.582L39.5416 7.51071C39.2281 7.19716 38.8029 7.02101 38.3594 7.021C37.916 7.02099 37.4908 7.19712 37.1772 7.51065C36.8637 7.82419 36.6875 8.24944 36.6875 8.69285C36.6875 9.13626 36.8636 9.56152 37.1772 9.87507L45.2487 17.9463Z" fill="url(#paint2_linear_401_3267)"/>
<path d="M59.9999 8.86311C60.4431 8.86262 60.8681 8.68633 61.1815 8.37292C61.4949 8.05951 61.6712 7.63457 61.6717 7.19133V2.13735C61.6717 1.69397 61.4956 1.26874 61.182 0.955227C60.8685 0.641709 60.4433 0.465576 59.9999 0.465576C59.5565 0.465576 59.1313 0.641709 58.8178 0.955227C58.5043 1.26874 58.3281 1.69397 58.3281 2.13735V7.19133C58.3286 7.63457 58.5049 8.05951 58.8183 8.37292C59.1317 8.68633 59.5567 8.86262 59.9999 8.86311V8.86311Z" fill="url(#paint3_linear_401_3267)"/>
<path d="M42.3698 26.5639C42.2066 27.0595 42.1863 27.591 42.3113 28.0976C42.4364 28.6042 42.7016 29.0653 43.0766 29.4281L49.5112 35.7001L47.9923 44.5566C47.9241 44.9574 47.944 45.3683 48.0507 45.7607C48.1573 46.1531 48.3481 46.5176 48.6098 46.8288C48.8716 47.14 49.1979 47.3905 49.5662 47.5628C49.9345 47.7351 50.3359 47.8252 50.7425 47.8267C51.1968 47.8253 51.6441 47.714 52.046 47.5021L59.9999 43.3206L67.9535 47.5019C68.3554 47.7139 68.8026 47.8253 69.257 47.8266C69.6636 47.8251 70.065 47.7351 70.4333 47.5628C70.8016 47.3905 71.128 47.1401 71.3897 46.8289C71.6515 46.5177 71.8423 46.1533 71.949 45.7609C72.0556 45.3685 72.0756 44.9576 72.0074 44.5568L70.4885 35.7L76.9231 29.428C77.2964 29.0641 77.5605 28.603 77.6854 28.0968C77.8103 27.5907 77.7911 27.0597 77.63 26.5639C77.4689 26.0681 77.1722 25.6272 76.7736 25.2912C76.375 24.9552 75.8904 24.7374 75.3745 24.6625L66.4822 23.3703L62.5054 15.3124C62.2747 14.8449 61.9177 14.4512 61.475 14.176C61.0322 13.9008 60.5212 13.7549 59.9999 13.7549C59.4785 13.7549 58.9676 13.9007 58.5248 14.1759C58.082 14.4511 57.7251 14.8447 57.4943 15.3122L53.5175 23.3701L44.6254 24.6625C44.1087 24.7355 43.6231 24.9525 43.2241 25.2888C42.8252 25.6251 42.5291 26.067 42.3698 26.5639ZM67.144 35.9807L68.5238 44.0245L61.3 40.2268C60.8991 40.016 60.4528 39.9058 59.9998 39.9059C59.5468 39.9059 59.1006 40.0161 58.6996 40.2269L51.4759 44.0245L52.8557 35.9806C52.9322 35.5341 52.899 35.0757 52.759 34.6449C52.619 34.2141 52.3763 33.8238 52.0518 33.5076L46.2077 27.8112L54.284 26.6375C54.7324 26.5725 55.1582 26.3994 55.5247 26.1331C55.8912 25.8668 56.1875 25.5153 56.3878 25.109L59.9999 17.7906L63.873 25.6378C63.9928 25.8808 64.1698 26.091 64.3889 26.2503C64.608 26.4097 64.8626 26.5134 65.1306 26.5525L73.7917 27.811L67.9478 33.5075C67.6234 33.8237 67.3807 34.2141 67.2407 34.6449C67.1007 35.0758 67.0675 35.5342 67.144 35.9807V35.9807Z" fill="url(#paint4_linear_401_3267)"/>
<path d="M72.5139 97.7539C72.2405 97.4799 71.8805 97.3091 71.4953 97.2707C71.1101 97.2323 70.7235 97.3287 70.4014 97.5434C70.0793 97.7581 69.8416 98.0779 69.7288 98.4482C69.616 98.8186 69.6352 99.2165 69.783 99.5743C69.9308 99.9321 70.198 100.228 70.5393 100.41C70.8805 100.593 71.2746 100.652 71.6543 100.577C72.0341 100.502 72.376 100.297 72.6218 99.9981C72.8677 99.6991 73.0022 99.3241 73.0025 98.9369C73.001 98.4938 72.8255 98.069 72.5139 97.7539Z" fill="url(#paint5_linear_401_3267)"/>
<defs>
<linearGradient id="paint0_linear_401_3267" x1="-7.87004" y1="85.6346" x2="125.488" y2="85.6346" gradientUnits="userSpaceOnUse">
<stop stop-color="#8F7047"/>
<stop offset="0.509514" stop-color="#DABD9A"/>
<stop offset="1" stop-color="#A58A63"/>
</linearGradient>
<linearGradient id="paint1_linear_401_3267" x1="71.0986" y1="12.7299" x2="83.88" y2="12.7299" gradientUnits="userSpaceOnUse">
<stop stop-color="#8F7047"/>
<stop offset="0.509514" stop-color="#DABD9A"/>
<stop offset="1" stop-color="#A58A63"/>
</linearGradient>
<linearGradient id="paint2_linear_401_3267" x1="35.8885" y1="12.7284" x2="48.6732" y2="12.7284" gradientUnits="userSpaceOnUse">
<stop stop-color="#8F7047"/>
<stop offset="0.509514" stop-color="#DABD9A"/>
<stop offset="1" stop-color="#A58A63"/>
</linearGradient>
<linearGradient id="paint3_linear_401_3267" x1="58.0941" y1="4.66434" x2="61.8389" y2="4.66434" gradientUnits="userSpaceOnUse">
<stop stop-color="#8F7047"/>
<stop offset="0.509514" stop-color="#DABD9A"/>
<stop offset="1" stop-color="#A58A63"/>
</linearGradient>
<linearGradient id="paint4_linear_401_3267" x1="39.7429" y1="30.7908" x2="79.5436" y2="30.7908" gradientUnits="userSpaceOnUse">
<stop stop-color="#8F7047"/>
<stop offset="0.509514" stop-color="#DABD9A"/>
<stop offset="1" stop-color="#A58A63"/>
</linearGradient>
<linearGradient id="paint5_linear_401_3267" x1="69.422" y1="98.9356" x2="73.1698" y2="98.9356" gradientUnits="userSpaceOnUse">
<stop stop-color="#8F7047"/>
<stop offset="0.509514" stop-color="#DABD9A"/>
<stop offset="1" stop-color="#A58A63"/>
</linearGradient>
</defs>
</svg>
