<svg width="120" height="120" viewBox="0 0 120 120" fill="none" xmlns="http://www.w3.org/2000/svg">
<path d="M116.764 33.28C116.621 32.9932 116.4 32.7519 116.127 32.5834C115.855 32.4148 115.54 32.3256 115.22 32.3258H89.9095L101.577 15.6077L106.672 23.7061C106.917 24.0928 107.305 24.3668 107.751 24.4678C108.197 24.5688 108.665 24.4887 109.052 24.245C109.439 24.0013 109.713 23.6139 109.815 23.168C109.917 22.7221 109.837 22.254 109.594 21.8666L103.1 11.5472C102.945 11.3004 102.729 11.097 102.473 10.9561C102.218 10.8152 101.931 10.7413 101.639 10.7413H18.3607C18.0687 10.7416 17.7815 10.8158 17.5259 10.957C17.2704 11.0983 17.0547 11.3019 16.899 11.5489L3.3182 33.1385C3.15399 33.3996 3.06274 33.7 3.05393 34.0083C3.04512 34.3166 3.11908 34.6217 3.26811 34.8917C3.41714 35.1618 3.6358 35.387 3.90135 35.5439C4.1669 35.7008 4.46965 35.7837 4.77809 35.784H29.8621L53.7141 96.3042L11.8308 40.5605C11.5556 40.1957 11.1469 39.955 10.6944 39.8912C10.2419 39.8274 9.78254 39.9457 9.41714 40.2201C9.05175 40.4946 8.81015 40.9027 8.74535 41.3551C8.68056 41.8075 8.79786 42.2671 9.07152 42.633L58.6201 108.57C58.7811 108.784 58.9897 108.957 59.2292 109.077C59.4688 109.196 59.7329 109.259 60.0006 109.259C60.2683 109.259 60.5324 109.196 60.7719 109.077C61.0115 108.957 61.22 108.784 61.3811 108.57L116.602 35.0868C116.794 34.8303 116.911 34.5255 116.939 34.2064C116.968 33.8874 116.907 33.5666 116.764 33.28L116.764 33.28ZM98.348 14.1926L86.7171 30.852L76.9102 14.1926H98.348ZM83.5816 32.324H63.162L73.8265 15.7682L83.5816 32.324ZM70.7272 14.1926L60.004 30.8693L49.267 14.1926L70.7272 14.1926ZM56.8495 32.324H34.3609L46.0608 15.5611L56.8495 32.324ZM42.7993 14.1926L31.1684 30.852L21.3616 14.1926H42.7993ZM7.90496 32.3292L18.3089 15.7906L28.0364 32.324L7.90496 32.3292ZM58.2749 35.7805V98.4492L33.5757 35.7805L58.2749 35.7805ZM65.5606 97.2619L83.6161 47.4666C83.7716 47.0363 83.75 46.5618 83.5559 46.1475C83.3618 45.7331 83.0111 45.4127 82.581 45.2568C82.1508 45.1008 81.6763 45.122 81.2618 45.3157C80.8472 45.5094 80.5265 45.8597 80.3701 46.2897L61.7262 97.7123V35.7805L111.767 35.7753L65.5606 97.2619Z" fill="url(#paint0_linear_401_3176)"/>
<defs>
<linearGradient id="paint0_linear_401_3176" x1="-4.91928" y1="60" x2="122.641" y2="60" gradientUnits="userSpaceOnUse">
<stop stop-color="#8F7047"/>
<stop offset="0.509514" stop-color="#DABD9A"/>
<stop offset="1" stop-color="#A58A63"/>
</linearGradient>
</defs>
</svg>
