<svg width="120" height="120" viewBox="0 0 120 120" fill="none" xmlns="http://www.w3.org/2000/svg">
<path d="M99.4183 10.0177C90.3204 10.0177 83.1319 17.3185 83.1319 26.4164C83.124 28.5574 83.5399 30.6788 84.3555 32.6583C85.1712 34.6378 86.3706 36.4364 87.8845 37.9503C89.3984 39.4642 91.1969 40.6635 93.1764 41.4792C95.156 42.2948 97.2773 42.7107 99.4183 42.7028C103.766 42.6977 107.934 40.9684 111.008 37.8941C114.083 34.8199 115.812 30.6517 115.817 26.3041C115.817 17.2062 108.516 10.0177 99.4183 10.0177ZM99.4183 39.1085C97.7366 39.1093 96.0712 38.7786 94.5174 38.1354C92.9635 37.4922 91.5517 36.549 90.3625 35.3599C89.1734 34.1707 88.2302 32.7589 87.587 31.205C86.9438 29.6512 86.6131 27.9858 86.6139 26.3041C86.6139 19.2279 92.4545 13.6119 99.4183 13.6119C101.097 13.6045 102.761 13.9288 104.314 14.5661C105.867 15.2035 107.279 16.1413 108.469 17.3259C109.659 18.5104 110.603 19.9182 111.247 21.4686C111.891 23.019 112.223 24.6814 112.223 26.3602C112.223 28.0391 111.891 29.7015 111.247 31.2519C110.603 32.8022 109.659 34.2101 108.469 35.3946C107.279 36.5792 105.867 37.517 104.314 38.1544C102.761 38.7917 101.097 39.116 99.4183 39.1085Z" fill="url(#paint0_linear_401_3254)"/>
<path d="M104.585 28.8875C104.473 28.5505 104.473 28.3259 104.248 27.989C104.142 27.7043 103.99 27.4388 103.799 27.2027C103.574 26.9781 103.462 26.7534 103.238 26.5288C103.025 26.2806 102.755 26.0878 102.451 25.9672C102.215 25.776 101.95 25.6243 101.665 25.5179C101.328 25.4056 101.103 25.181 100.766 25.0686C100.46 24.975 100.16 24.8625 99.8679 24.7317C99.699 24.7037 99.5424 24.6254 99.4187 24.507C99.3063 24.3947 99.0817 24.3947 98.9694 24.2824C98.8571 24.1701 98.6324 24.1701 98.5201 24.0577C98.4078 23.9454 98.2955 23.8331 98.1831 23.7208C98.1146 23.6673 98.0589 23.5993 98.02 23.5215C97.9811 23.4438 97.9601 23.3584 97.9585 23.2715C97.8693 23.1397 97.8295 22.9805 97.8462 22.8222V22.2606C97.8462 22.1483 97.9585 21.9237 97.9585 21.8114C98.0708 21.699 98.0708 21.4744 98.1831 21.3621C98.2954 21.2498 98.4078 21.1374 98.5201 21.0251C98.6738 20.8845 98.8734 20.8047 99.0817 20.8005C99.2542 20.7098 99.4492 20.6708 99.6433 20.6881H100.317C100.511 20.6708 100.706 20.7098 100.879 20.8005C101.068 20.8269 101.256 20.8644 101.44 20.9128C101.553 20.9128 101.777 21.0251 101.89 21.0251C102.114 21.0251 102.227 21.1375 102.339 21.1375L102.901 21.3621L103.013 20.6882L103.238 18.8911V18.4418L102.788 18.3294C102.676 18.3294 102.451 18.2171 102.339 18.2171C102.227 18.2171 102.114 18.1048 101.89 18.1048C101.705 18.0564 101.517 18.0189 101.328 17.9925C101.103 17.9925 100.991 17.8801 100.766 17.8801H100.654V15.7461H97.9585V17.9925H97.8462C97.49 18.0946 97.1498 18.2458 96.8353 18.4418C96.5315 18.5624 96.2617 18.7552 96.0491 19.0034C95.7972 19.2408 95.5713 19.5044 95.3752 19.7896C95.1598 20.0516 95.0062 20.3587 94.9259 20.6882C94.8136 21.0251 94.7012 21.3621 94.5889 21.6991C94.4961 22.0658 94.4582 22.4444 94.4766 22.8222C94.4584 23.1261 94.4965 23.4308 94.5889 23.7208C94.7012 24.0578 94.7012 24.2824 94.9259 24.6194C95.0382 24.844 95.2628 25.181 95.3752 25.4056C95.5998 25.6303 95.7121 25.8549 95.9368 26.0795C96.1494 26.3277 96.4192 26.5205 96.723 26.6411C96.9591 26.8323 97.2246 26.984 97.5092 27.0904C97.8196 27.2174 98.12 27.3675 98.4078 27.5397C98.714 27.6333 99.0141 27.7458 99.3063 27.8766C99.4753 27.9046 99.6319 27.9829 99.7556 28.1013C99.8679 28.2136 100.093 28.2136 100.205 28.3259C100.317 28.4383 100.43 28.5506 100.542 28.5506C100.654 28.6629 100.767 28.7752 100.879 28.8875C100.991 28.9999 100.991 29.1122 101.103 29.3368C101.152 29.5216 101.189 29.7092 101.216 29.8984V30.46C101.188 30.629 101.11 30.7855 100.991 30.9093C100.879 31.0216 100.767 31.1339 100.654 31.2463C100.526 31.385 100.374 31.4992 100.205 31.5832C100.093 31.6955 99.868 31.6955 99.7556 31.8079C99.5708 31.8563 99.3833 31.8938 99.194 31.9202H97.7339C97.5446 31.8938 97.3571 31.8563 97.1723 31.8079C96.9336 31.7845 96.7033 31.7078 96.4984 31.5832C96.2737 31.4709 96.0491 31.4709 95.8244 31.3586C95.7121 31.3586 95.5998 31.2462 95.4875 31.2462C95.3752 31.2462 95.2628 31.1339 95.1505 31.1339L94.4766 30.797L94.3643 31.5832L94.1396 33.605V33.9419L94.4766 34.0542C94.9259 33.9419 95.1505 34.0542 95.4875 34.1666C95.7321 34.2927 95.9994 34.369 96.2737 34.3912C96.4984 34.5035 96.8353 34.5035 97.1723 34.6159C97.4623 34.7083 97.767 34.7464 98.0708 34.7282H98.2955V36.9745H100.991V34.6158H101.103C101.46 34.5137 101.8 34.3625 102.114 34.1665C102.451 34.0542 102.676 33.8296 103.013 33.6049C103.265 33.3675 103.491 33.1039 103.687 32.8187C103.911 32.594 104.024 32.2571 104.248 31.9201C104.361 31.5832 104.473 31.2462 104.585 30.9093C104.684 30.5435 104.722 30.1641 104.698 29.7861C104.716 29.4822 104.678 29.1776 104.585 28.8875V28.8875Z" fill="url(#paint1_linear_401_3254)"/>
<path d="M91.5559 44.8373C90.9943 44.051 89.7588 43.9387 88.9725 44.5003L70.7767 58.9896L47.3019 49.2177C47.0244 49.1128 46.7252 49.0783 46.4311 49.1176C46.1371 49.1568 45.8574 49.2684 45.6171 49.4424L20.4574 67.4135C20.0743 67.6849 19.8127 68.0955 19.7287 68.5574C19.6447 69.0193 19.745 69.4958 20.0081 69.8846C20.1594 70.1338 20.3746 70.3381 20.6313 70.4763C20.888 70.6145 21.1769 70.6817 21.4683 70.6708C21.8314 70.6624 22.1836 70.545 22.4792 70.3339L46.8526 52.9243L70.4398 62.6961C70.7361 62.8011 71.0529 62.8354 71.3649 62.7964C71.6769 62.7574 71.9755 62.6461 72.2369 62.4715L91.2189 47.4206C92.0052 46.859 92.1175 45.6235 91.5559 44.8373Z" fill="url(#paint2_linear_401_3254)"/>
<path d="M117.839 106.388H109.527V54.3841C109.531 54.1472 109.486 53.9121 109.397 53.6927C109.308 53.4733 109.175 53.2739 109.008 53.1064C108.84 52.9389 108.641 52.8067 108.422 52.7174C108.202 52.6282 107.967 52.5839 107.73 52.5869H91.2193C90.9825 52.5839 90.7474 52.6282 90.528 52.7174C90.3085 52.8067 90.1092 52.9389 89.9417 53.1064C89.7742 53.2739 89.6419 53.4733 89.5527 53.6927C89.4635 53.9121 89.4191 54.1472 89.4222 54.3841V106.388H83.3569V72.3552C83.36 72.1184 83.3156 71.8833 83.2264 71.6639C83.1372 71.4444 83.0049 71.2451 82.8375 71.0776C82.67 70.9101 82.4706 70.7779 82.2512 70.6886C82.0317 70.5994 81.7967 70.555 81.5598 70.5581H64.9365C64.6996 70.555 64.4645 70.5994 64.2451 70.6886C64.0257 70.7779 63.8263 70.9101 63.6588 71.0776C63.4913 71.2451 63.3591 71.4444 63.2699 71.6639C63.1806 71.8833 63.1363 72.1184 63.1394 72.3552V106.388H57.0741V69.6596C57.0772 69.4227 57.0328 69.1876 56.9436 68.9682C56.8543 68.7488 56.7221 68.5494 56.5546 68.3819C56.3871 68.2144 56.1878 68.0822 55.9683 67.993C55.7489 67.9037 55.5138 67.8594 55.277 67.8625H38.7659C38.5291 67.8594 38.294 67.9037 38.0746 67.993C37.8551 68.0822 37.6558 68.2144 37.4883 68.3819C37.3208 68.5494 37.1885 68.7488 37.0993 68.9682C37.0101 69.1876 36.9657 69.4227 36.9688 69.6596V106.388H30.9035V80.2176C30.9066 79.9808 30.8623 79.7457 30.773 79.5263C30.6838 79.3068 30.5516 79.1075 30.3841 78.94C30.2166 78.7725 30.0172 78.6402 29.7978 78.551C29.5784 78.4618 29.3433 78.4174 29.1064 78.4205H12.4831C12.2462 78.4174 12.0111 78.4618 11.7917 78.551C11.5723 78.6402 11.3729 78.7725 11.2054 78.94C11.0379 79.1075 10.9057 79.3068 10.8165 79.5263C10.7272 79.7457 10.6829 79.9808 10.686 80.2176V106.388H2.26196C1.78534 106.388 1.32823 106.578 0.991207 106.915C0.654182 107.252 0.464844 107.709 0.464844 108.185C0.464844 108.662 0.654182 109.119 0.991207 109.456C1.32823 109.793 1.78534 109.982 2.26196 109.982H117.727C117.964 109.986 118.199 109.941 118.418 109.852C118.638 109.763 118.837 109.63 119.004 109.463C119.172 109.295 119.304 109.096 119.393 108.877C119.483 108.657 119.527 108.422 119.524 108.185C119.549 107.953 119.524 107.717 119.45 107.495C119.376 107.273 119.255 107.07 119.095 106.899C118.935 106.729 118.74 106.594 118.523 106.506C118.306 106.418 118.073 106.378 117.839 106.388ZM27.197 106.388H14.2802V82.0148H27.197L27.197 106.388ZM53.4798 106.388H40.563V71.4567H53.4798V106.388ZM79.6504 106.388H66.7336V74.1524H79.6504V106.388ZM105.933 106.388H93.0164V56.1812H105.933L105.933 106.388Z" fill="url(#paint3_linear_401_3254)"/>
<defs>
<linearGradient id="paint0_linear_401_3254" x1="80.8439" y1="26.3603" x2="117.451" y2="26.3603" gradientUnits="userSpaceOnUse">
<stop stop-color="#8F7047"/>
<stop offset="0.509514" stop-color="#DABD9A"/>
<stop offset="1" stop-color="#A58A63"/>
</linearGradient>
<linearGradient id="paint1_linear_401_3254" x1="93.4001" y1="26.3603" x2="105.233" y2="26.3603" gradientUnits="userSpaceOnUse">
<stop stop-color="#8F7047"/>
<stop offset="0.509514" stop-color="#DABD9A"/>
<stop offset="1" stop-color="#A58A63"/>
</linearGradient>
<linearGradient id="paint2_linear_401_3254" x1="14.6452" y1="57.4106" x2="95.5173" y2="57.4106" gradientUnits="userSpaceOnUse">
<stop stop-color="#8F7047"/>
<stop offset="0.509514" stop-color="#DABD9A"/>
<stop offset="1" stop-color="#A58A63"/>
</linearGradient>
<linearGradient id="paint3_linear_401_3254" x1="-7.86997" y1="81.2847" x2="125.487" y2="81.2847" gradientUnits="userSpaceOnUse">
<stop stop-color="#8F7047"/>
<stop offset="0.509514" stop-color="#DABD9A"/>
<stop offset="1" stop-color="#A58A63"/>
</linearGradient>
</defs>
</svg>
