<svg width="120" height="120" viewBox="0 0 120 120" fill="none" xmlns="http://www.w3.org/2000/svg">
<path d="M115.465 8.59022H4.53461C3.45563 8.59149 2.4212 9.02067 1.65824 9.78362C0.895289 10.5466 0.466105 11.581 0.464844 12.66V26.9844C0.464844 29.2395 3.95322 29.2395 3.95322 26.9844V12.66C3.95339 12.5058 4.0147 12.3581 4.1237 12.2491C4.23269 12.1401 4.38047 12.0788 4.53461 12.0786H115.465C115.619 12.0788 115.767 12.1401 115.876 12.2491C115.985 12.3581 116.046 12.5058 116.046 12.66V97.7156C116.046 97.8697 115.985 98.0175 115.876 98.1265C115.767 98.2355 115.619 98.2968 115.465 98.297H93.1132V94.6677H110.656C110.885 94.6677 111.112 94.6226 111.323 94.5349C111.535 94.4473 111.727 94.3188 111.889 94.1568C112.051 93.9949 112.18 93.8026 112.267 93.591C112.355 93.3793 112.4 93.1525 112.4 92.9235V74.6586C112.4 72.4035 108.912 72.4035 108.912 74.6586V91.1793H93.1132V83.4405C93.17 83.4453 93.2272 83.4502 93.2809 83.4551C94.7288 83.5823 96.5297 83.7407 97.7774 82.4907C99.0237 81.2421 98.866 79.4393 98.7393 77.9907C98.6027 76.436 98.7497 76.0105 99.9446 75.0172C103.021 72.4591 103.078 69.72 99.9446 67.1149C98.7497 66.1209 98.6034 65.6958 98.7393 64.1409C99.0807 60.2393 97.2583 58.3272 93.2809 58.6767C91.7286 58.813 91.3074 58.6656 90.3176 57.4705C87.7634 54.3867 85.0225 54.3298 82.4209 57.4705C81.4311 58.6653 81.0102 58.8135 79.4579 58.6767C75.5534 58.3337 73.6509 60.1663 73.9993 64.1409C74.1351 65.696 73.9888 66.1209 72.7939 67.1149C69.7174 69.6728 69.6604 72.4123 72.7939 75.0172C73.9888 76.0111 74.1351 76.4363 73.9993 77.9911C73.633 82.17 75.6288 83.7858 79.6248 83.4407V91.1798H11.0879V19.196H108.912V65.3563C108.912 67.6114 112.4 67.6114 112.4 65.3563V17.4518C112.4 17.2228 112.355 16.996 112.267 16.7844C112.18 16.5727 112.051 16.3805 111.889 16.2185C111.727 16.0565 111.535 15.928 111.323 15.8404C111.112 15.7528 110.885 15.7076 110.656 15.7077H9.34368C9.11463 15.7076 8.88781 15.7528 8.67619 15.8404C8.46457 15.928 8.27229 16.0565 8.11032 16.2185C7.94836 16.3805 7.81988 16.5727 7.73223 16.7844C7.64459 16.996 7.59948 17.2228 7.59949 17.4518V92.9235C7.59948 93.1525 7.64459 93.3793 7.73223 93.591C7.81988 93.8026 7.94836 93.9949 8.11032 94.1568C8.27229 94.3188 8.46457 94.4473 8.67619 94.5349C8.88781 94.6226 9.11463 94.6677 9.34368 94.6677H79.6248V98.297H4.53461C4.38047 98.2968 4.23269 98.2355 4.1237 98.1265C4.0147 98.0175 3.95339 97.8697 3.95322 97.7156V35.8214C3.95322 33.5663 0.464844 33.5663 0.464844 35.8214V97.7156C0.466107 98.7945 0.89529 99.829 1.65825 100.592C2.4212 101.355 3.45563 101.784 4.53461 101.785H79.6248V109.681C79.8732 111.114 80.6998 111.641 82.1046 111.262L86.369 109.279L90.6334 111.262C91.6886 111.753 93.1132 110.977 93.1132 109.681V101.785H115.465C116.544 101.784 117.578 101.355 118.341 100.592C119.104 99.829 119.533 98.7945 119.535 97.7156V12.66C119.533 11.581 119.104 10.5465 118.341 9.78357C117.578 9.0206 116.544 8.59143 115.465 8.59021V8.59022ZM79.1521 79.9798C77.406 80.1335 77.3214 80.04 77.4739 78.2949C77.7083 75.6165 77.0923 74.0537 75.0237 72.3342C73.6083 71.1572 73.6086 70.9737 75.0237 69.7967C77.0923 68.0772 77.7086 66.5144 77.4739 63.8363C77.3214 62.0909 77.406 61.9984 79.1521 62.1511C81.8307 62.3872 83.3914 61.7665 85.1069 59.6951C86.2793 58.2802 86.4586 58.2802 87.6309 59.6951C89.3469 61.7665 90.9072 62.3863 93.5858 62.1511C95.3321 61.9974 95.4165 62.0909 95.2639 63.836C95.0295 66.5144 95.6455 68.077 97.7141 69.7965C99.1293 70.9735 99.13 71.1574 97.7139 72.3342C95.6453 74.0539 95.029 75.616 95.2637 78.2944C95.4169 80.0395 95.3318 80.1332 93.586 79.9798C92.4904 79.8835 91.2476 79.7742 90.1537 80.2286C89.0948 80.6684 88.3504 81.5667 87.6307 82.4358C87.2916 82.8451 86.6727 83.5923 86.3686 83.726C86.0646 83.5923 85.4458 82.8451 85.1067 82.4358C84.3869 81.567 83.6427 80.6684 82.5837 80.2286C81.4736 79.8857 80.3 79.8006 79.1521 79.9798V79.9798ZM87.1046 105.774C86.8742 105.667 86.6231 105.611 86.369 105.611C86.1149 105.611 85.8639 105.667 85.6334 105.774L83.1132 106.946V85.4695C83.9409 86.3795 84.9621 87.2244 86.369 87.2244C87.776 87.2244 88.7972 86.3798 89.6248 85.4698V106.946L87.1046 105.774Z" fill="url(#paint0_linear_401_3197)"/>
<path d="M23.0851 33.796H83.2123C85.4674 33.796 85.4674 30.3076 83.2123 30.3076H23.0851C20.8297 30.3076 20.8297 33.796 23.0851 33.796Z" fill="url(#paint1_linear_401_3197)"/>
<path d="M98.6602 42.6603C98.6603 42.4313 98.6152 42.2045 98.5275 41.9928C98.4399 41.7812 98.3114 41.5889 98.1494 41.427C97.9874 41.265 97.7952 41.1365 97.5835 41.0489C97.3719 40.9612 97.1451 40.9161 96.9161 40.9161H23.0849C20.8298 40.9161 20.8298 44.4045 23.0849 44.4045H96.9163C97.1453 44.4045 97.3721 44.3594 97.5837 44.2717C97.7953 44.1841 97.9876 44.0556 98.1495 43.8936C98.3115 43.7316 98.4399 43.5394 98.5275 43.3278C98.6152 43.1162 98.6603 42.8894 98.6602 42.6603V42.6603Z" fill="url(#paint2_linear_401_3197)"/>
<path d="M66.7766 53.2688C66.7766 53.0398 66.7315 52.813 66.6438 52.6014C66.5562 52.3897 66.4277 52.1975 66.2657 52.0355C66.1038 51.8735 65.9115 51.745 65.6999 51.6574C65.4882 51.5697 65.2614 51.5246 65.0324 51.5247H23.0849C20.8298 51.5247 20.8298 55.013 23.0849 55.013H65.0324C65.4949 55.013 65.9386 54.8293 66.2657 54.5022C66.5928 54.1751 66.7765 53.7314 66.7766 53.2688V53.2688Z" fill="url(#paint3_linear_401_3197)"/>
<path d="M43.8718 77.581C42.9208 77.5826 41.9698 77.5838 41.0187 77.5845C39.1892 77.5859 38.182 77.0982 37.8083 75.1582C37.4671 73.3873 34.9127 73.6129 34.4446 75.1582C34.2374 75.8426 33.1908 77.8019 32.2767 77.6417C31.7922 77.5568 31.5806 76.8096 31.4015 76.4226C31.063 75.6631 30.7887 74.8764 30.5815 74.071C29.6634 70.691 29.4801 67.162 28.9057 63.7182C28.5727 61.7213 25.5287 62.2859 25.4797 64.182C25.3234 70.2217 24.336 76.1787 22.1857 81.8398C21.3878 83.9405 24.7587 84.8489 25.5494 82.7673C26.3725 80.5885 27.0401 78.3542 27.5474 76.081C27.82 76.9132 28.1541 77.7241 28.5469 78.5068C29.5655 80.5199 31.6429 81.7108 33.8657 80.8154C34.6844 80.4624 35.4134 79.93 35.9987 79.2575C37.649 81.1605 40.1041 81.0743 42.3946 81.0715C45.8474 81.0671 49.3002 81.0597 52.7532 81.0494C54.9976 81.0431 55.0018 77.5547 52.7532 77.561C49.7927 77.5694 46.8322 77.5761 43.8718 77.581V77.581Z" fill="url(#paint4_linear_401_3197)"/>
<path d="M86.3702 77.8773C87.7176 77.8773 89.0347 77.4778 90.1551 76.7292C91.2754 75.9806 92.1486 74.9166 92.6642 73.6718C93.1798 72.427 93.3147 71.0572 93.0519 69.7357C92.789 68.4142 92.1402 67.2003 91.1874 66.2475C90.2347 65.2948 89.0208 64.646 87.6993 64.3831C86.3778 64.1202 85.008 64.2551 83.7631 64.7708C82.5183 65.2864 81.4543 66.1596 80.7057 67.2799C79.9572 68.4002 79.5576 69.7174 79.5576 71.0648C79.5597 72.8709 80.2781 74.6025 81.5553 75.8797C82.8324 77.1568 84.564 77.8752 86.3702 77.8773V77.8773ZM86.3702 67.7406C87.0277 67.7406 87.6704 67.9355 88.217 68.3008C88.7637 68.6661 89.1898 69.1852 89.4414 69.7926C89.693 70.4001 89.7588 71.0684 89.6305 71.7133C89.5023 72.3581 89.1857 72.9504 88.7208 73.4153C88.2559 73.8802 87.6636 74.1968 87.0187 74.3251C86.3739 74.4533 85.7055 74.3875 85.0981 74.1359C84.4907 73.8843 83.9715 73.4582 83.6062 72.9116C83.241 72.3649 83.046 71.7222 83.046 71.0648C83.0471 70.1834 83.3976 69.3385 84.0208 68.7154C84.644 68.0922 85.4889 67.7416 86.3702 67.7406V67.7406Z" fill="url(#paint5_linear_401_3197)"/>
<defs>
<linearGradient id="paint0_linear_401_3197" x1="-7.87004" y1="60.0004" x2="125.488" y2="60.0004" gradientUnits="userSpaceOnUse">
<stop stop-color="#8F7047"/>
<stop offset="0.509514" stop-color="#DABD9A"/>
<stop offset="1" stop-color="#A58A63"/>
</linearGradient>
<linearGradient id="paint1_linear_401_3197" x1="16.9479" y1="32.0518" x2="88.0791" y2="32.0518" gradientUnits="userSpaceOnUse">
<stop stop-color="#8F7047"/>
<stop offset="0.509514" stop-color="#DABD9A"/>
<stop offset="1" stop-color="#A58A63"/>
</linearGradient>
<linearGradient id="paint2_linear_401_3197" x1="15.9849" y1="42.6603" x2="102.524" y2="42.6604" gradientUnits="userSpaceOnUse">
<stop stop-color="#8F7047"/>
<stop offset="0.509514" stop-color="#DABD9A"/>
<stop offset="1" stop-color="#A58A63"/>
</linearGradient>
<linearGradient id="paint3_linear_401_3197" x1="18.2167" y1="53.2688" x2="69.0457" y2="53.2689" gradientUnits="userSpaceOnUse">
<stop stop-color="#8F7047"/>
<stop offset="0.509514" stop-color="#DABD9A"/>
<stop offset="1" stop-color="#A58A63"/>
</linearGradient>
<linearGradient id="paint4_linear_401_3197" x1="19.7983" y1="73.2052" x2="56.0567" y2="73.2052" gradientUnits="userSpaceOnUse">
<stop stop-color="#8F7047"/>
<stop offset="0.509514" stop-color="#DABD9A"/>
<stop offset="1" stop-color="#A58A63"/>
</linearGradient>
<linearGradient id="paint5_linear_401_3197" x1="78.6039" y1="71.0647" x2="93.864" y2="71.0648" gradientUnits="userSpaceOnUse">
<stop stop-color="#8F7047"/>
<stop offset="0.509514" stop-color="#DABD9A"/>
<stop offset="1" stop-color="#A58A63"/>
</linearGradient>
</defs>
</svg>
