<svg width="26" height="30" viewBox="0 0 26 30" fill="none" xmlns="http://www.w3.org/2000/svg">
<mask id="path-1-inside-1_401_3132" fill="white">
<path d="M0.180195 25.6066C2.27798 27.7044 4.95073 29.133 7.86044 29.7118C10.7702 30.2906 13.7862 29.9935 16.527 28.8582C19.2679 27.7229 21.6106 25.8003 23.2588 23.3336C24.9071 20.8668 25.7868 17.9667 25.7868 15C25.7868 12.0333 24.9071 9.13318 23.2588 6.66645C21.6106 4.19971 19.2679 2.27712 16.527 1.14181C13.7862 0.00649222 10.7702 -0.290558 7.86044 0.288221C4.95073 0.866999 2.27798 2.29561 0.180195 4.3934L0.816591 5.02979C2.78851 3.05787 5.30089 1.71498 8.03602 1.17093C10.7712 0.626875 13.6062 0.906103 16.1826 1.9733C18.7591 3.04049 20.9612 4.84773 22.5105 7.16646C24.0598 9.48519 24.8868 12.2113 24.8868 15C24.8868 17.7887 24.0598 20.5148 22.5105 22.8335C20.9612 25.1523 18.7591 26.9595 16.1826 28.0267C13.6062 29.0939 10.7712 29.3731 8.03602 28.8291C5.30089 28.285 2.78851 26.9421 0.816591 24.9702L0.180195 25.6066Z"/>
</mask>
<path d="M0.180195 25.6066C2.27798 27.7044 4.95073 29.133 7.86044 29.7118C10.7702 30.2906 13.7862 29.9935 16.527 28.8582C19.2679 27.7229 21.6106 25.8003 23.2588 23.3336C24.9071 20.8668 25.7868 17.9667 25.7868 15C25.7868 12.0333 24.9071 9.13318 23.2588 6.66645C21.6106 4.19971 19.2679 2.27712 16.527 1.14181C13.7862 0.00649222 10.7702 -0.290558 7.86044 0.288221C4.95073 0.866999 2.27798 2.29561 0.180195 4.3934L0.816591 5.02979C2.78851 3.05787 5.30089 1.71498 8.03602 1.17093C10.7712 0.626875 13.6062 0.906103 16.1826 1.9733C18.7591 3.04049 20.9612 4.84773 22.5105 7.16646C24.0598 9.48519 24.8868 12.2113 24.8868 15C24.8868 17.7887 24.0598 20.5148 22.5105 22.8335C20.9612 25.1523 18.7591 26.9595 16.1826 28.0267C13.6062 29.0939 10.7712 29.3731 8.03602 28.8291C5.30089 28.285 2.78851 26.9421 0.816591 24.9702L0.180195 25.6066Z" stroke="white" stroke-width="2" mask="url(#path-1-inside-1_401_3132)"/>
</svg>
