<svg width="24" height="24" viewBox="0 0 24 24" fill="none" xmlns="http://www.w3.org/2000/svg">
<path d="M21.8906 3.13037H2.10938C0.943922 3.13037 0 4.12879 0 5.34776V18.6521C0 19.8783 0.950859 20.8695 2.10938 20.8695H21.8906C23.0463 20.8695 24 19.8825 24 18.6521V5.34776C24 4.13096 23.0598 3.13037 21.8906 3.13037ZM21.5952 4.60863C21.1642 5.05926 13.7476 12.8146 13.4916 13.0824C13.0931 13.5012 12.5634 13.7318 12 13.7318C11.4366 13.7318 10.9069 13.5012 10.5071 13.081C10.3349 12.9009 3.00014 5.23118 2.40478 4.60863H21.5952ZM1.40625 18.3512V5.64957L7.48303 12.0039L1.40625 18.3512ZM2.40567 19.3912L8.48006 13.0464L9.51408 14.1276C10.1781 14.8257 11.061 15.2101 12 15.2101C12.939 15.2101 13.8219 14.8257 14.4846 14.129L15.5199 13.0464L21.5943 19.3912H2.40567ZM22.5938 18.3512L16.517 12.0039L22.5938 5.64957V18.3512Z" fill="url(#paint0_linear_401_182)"/>
<defs>
<linearGradient id="paint0_linear_401_182" x1="-1.68" y1="11.9999" x2="25.2" y2="11.9999" gradientUnits="userSpaceOnUse">
<stop stop-color="#8F7047"/>
<stop offset="0.509514" stop-color="#DABD9A"/>
<stop offset="1" stop-color="#A58A63"/>
</linearGradient>
</defs>
</svg>
