<svg width="24" height="24" viewBox="0 0 24 24" fill="none" xmlns="http://www.w3.org/2000/svg">
<path d="M10.9604 21V11.6H7V10H10.9604V7.93C10.9604 6.21 11.1287 5.58 11.4653 4.94C11.7822 4.33 12.2772 3.83 12.8812 3.51C13.505 3.17 14.1386 3 15.8416 3C16.2772 3 16.6634 3.04 17 3.11V4.6H15.8416C14.5743 4.6 14.099 4.67 13.6337 4.92C13.297 5.1 13.0396 5.36 12.8614 5.7C12.6139 6.17 12.5446 6.65 12.5446 7.93V10H16.9406L16.5446 11.6H12.5446V21H10.9604Z" fill="url(#paint0_linear_401_3570)"/>
<defs>
<linearGradient id="paint0_linear_401_3570" x1="4" y1="3" x2="23.4526" y2="9.97225" gradientUnits="userSpaceOnUse">
<stop stop-color="#8F7047"/>
<stop offset="0.509514" stop-color="#DABD9A"/>
<stop offset="1" stop-color="#A58A63"/>
</linearGradient>
</defs>
</svg>
