<svg width="36" height="36" viewBox="0 0 36 36" fill="none" xmlns="http://www.w3.org/2000/svg">
<path d="M16.4406 31.5V17.4H10.5V15H16.4406V11.895C16.4406 9.315 16.6931 8.37 17.198 7.41C17.6733 6.495 18.4158 5.745 19.3218 5.265C20.2574 4.755 21.2079 4.5 23.7624 4.5C24.4158 4.5 24.995 4.56 25.5 4.665V6.9H23.7624C21.8614 6.9 21.1485 7.005 20.4505 7.38C19.9455 7.65 19.5594 8.04 19.2921 8.55C18.9208 9.255 18.8168 9.975 18.8168 11.895V15H25.4109L24.8168 17.4H18.8168V31.5H16.4406Z" fill="white"/>
</svg>
