<svg width="48" height="48" viewBox="0 0 48 48" fill="none" xmlns="http://www.w3.org/2000/svg">
<mask id="path-1-inside-1_518_4003" fill="white">
<path d="M24 48C19.2532 48 14.6131 46.5924 10.6663 43.9553C6.71953 41.3181 3.64339 37.5698 1.82689 33.1844C0.0103876 28.799 -0.464892 23.9734 0.461154 19.3178C1.3872 14.6623 3.67298 10.3859 7.02944 7.02944C10.3859 3.67298 14.6623 1.3872 19.3178 0.461153C23.9734 -0.464892 28.799 0.0103887 33.1844 1.82689C37.5698 3.6434 41.3181 6.71954 43.9553 10.6663C46.5924 14.6131 48 19.2533 48 24H47.4329C47.4329 19.3654 46.0586 14.8349 43.4838 10.9814C40.9089 7.12783 37.2492 4.12437 32.9674 2.35078C28.6856 0.577198 23.974 0.113147 19.4285 1.01731C14.8829 1.92148 10.7076 4.15325 7.43041 7.4304C4.15325 10.7076 1.92148 14.8829 1.01731 19.4285C0.113147 23.974 0.577197 28.6856 2.35078 32.9674C4.12436 37.2492 7.12782 40.9089 10.9814 43.4838C14.8349 46.0586 19.3654 47.4329 24 47.4329V48Z"/>
</mask>
<path d="M24 48C19.2532 48 14.6131 46.5924 10.6663 43.9553C6.71953 41.3181 3.64339 37.5698 1.82689 33.1844C0.0103876 28.799 -0.464892 23.9734 0.461154 19.3178C1.3872 14.6623 3.67298 10.3859 7.02944 7.02944C10.3859 3.67298 14.6623 1.3872 19.3178 0.461153C23.9734 -0.464892 28.799 0.0103887 33.1844 1.82689C37.5698 3.6434 41.3181 6.71954 43.9553 10.6663C46.5924 14.6131 48 19.2533 48 24H47.4329C47.4329 19.3654 46.0586 14.8349 43.4838 10.9814C40.9089 7.12783 37.2492 4.12437 32.9674 2.35078C28.6856 0.577198 23.974 0.113147 19.4285 1.01731C14.8829 1.92148 10.7076 4.15325 7.43041 7.4304C4.15325 10.7076 1.92148 14.8829 1.01731 19.4285C0.113147 23.974 0.577197 28.6856 2.35078 32.9674C4.12436 37.2492 7.12782 40.9089 10.9814 43.4838C14.8349 46.0586 19.3654 47.4329 24 47.4329V48Z" stroke="url(#paint0_linear_518_4003)" stroke-width="2" mask="url(#path-1-inside-1_518_4003)"/>
<g clip-path="url(#clip0_518_4003)">
<path d="M21.0959 34.5C20.4453 34.5 19.8251 34.2091 19.3994 33.7001L14.0378 27.2861C13.2349 26.3254 13.3434 24.8795 14.2804 24.0562C15.2169 23.232 16.6269 23.3433 17.4307 24.3045L20.9359 28.4974L32.0139 14.7998C33.7287 12.3369 35.5235 13.7008 33.8011 16.1743L22.9135 33.5406C22.514 34.1137 21.88 34.4665 21.1942 34.4977C21.1611 34.4991 21.1285 34.5 21.0959 34.5Z" fill="url(#paint1_linear_518_4003)"/>
</g>
<defs>
<linearGradient id="paint0_linear_518_4003" x1="-14.4" y1="-5.4796e-06" x2="60" y2="48" gradientUnits="userSpaceOnUse">
<stop stop-color="#8F7047"/>
<stop offset="0.509514" stop-color="#DABD9A"/>
<stop offset="1" stop-color="#A58A63"/>
</linearGradient>
<linearGradient id="paint1_linear_518_4003" x1="12.03" y1="24" x2="35.55" y2="24" gradientUnits="userSpaceOnUse">
<stop stop-color="#8F7047"/>
<stop offset="0.509514" stop-color="#DABD9A"/>
<stop offset="1" stop-color="#A58A63"/>
</linearGradient>
<clipPath id="clip0_518_4003">
<rect width="21" height="21" fill="white" transform="translate(13.5 13.5)"/>
</clipPath>
</defs>
</svg>
