<svg width="36" height="36" viewBox="0 0 36 36" fill="none" xmlns="http://www.w3.org/2000/svg">
<path d="M17.9997 10.5945C13.9162 10.5945 10.5941 13.9166 10.5941 18.0001C10.5941 22.0835 13.9162 25.4056 17.9997 25.4056C22.0831 25.4056 25.4053 22.0834 25.4053 18C25.4053 13.9166 22.0831 10.5945 17.9997 10.5945ZM17.9997 23.8112C14.7954 23.8112 12.1885 21.2043 12.1885 18C12.1885 14.7958 14.7954 12.1889 17.9997 12.1889C21.204 12.1889 23.8108 14.7958 23.8108 18.0001C23.8108 21.2043 21.204 23.8112 17.9997 23.8112Z" fill="white" stroke="white" stroke-width="0.2"/>
<path d="M23.6947 10.8809C23.6947 10.007 24.4031 9.29883 25.2767 9.29883C26.1505 9.29883 26.8587 10.007 26.8587 10.8809C26.8587 11.7547 26.1505 12.4629 25.2767 12.4629C24.4031 12.4629 23.6947 11.7547 23.6947 10.8809Z" fill="white"/>
<path d="M24.0984 4.5H11.9016C7.82037 4.5 4.5 7.82037 4.5 11.9017V24.0984C4.5 28.1797 7.82037 31.5 11.9016 31.5H24.0984C28.1797 31.5 31.5 28.1797 31.5 24.0984V11.9017C31.5 7.82037 28.1797 4.5 24.0984 4.5ZM29.9055 24.0984C29.9055 27.3004 27.3005 29.9055 24.0984 29.9055H11.9016C8.69955 29.9055 6.09448 27.3005 6.09448 24.0984V11.9017C6.09448 8.69955 8.69955 6.09448 11.9016 6.09448H24.0984C27.3005 6.09448 29.9055 8.69955 29.9055 11.9017V24.0984Z" fill="white" stroke="white" stroke-width="0.2"/>
</svg>
