<svg width="96" height="79" viewBox="0 0 96 79" fill="none" xmlns="http://www.w3.org/2000/svg">
<path d="M36.6989 13.4822C36.9205 13.1199 37.1761 12.7403 37.4318 12.3953H31.875V22.4537H32.1477C32.5568 19.1584 33.9034 16.3462 36.2557 14.5864C36.375 14.2068 36.4943 13.8272 36.6989 13.4822Z" fill="white"/>
<path d="M38.7102 12.3953C38.4205 12.8093 38.0966 13.1889 37.875 13.6375C38.608 13.2924 39.4261 13.0336 40.3125 12.8783C40.3296 12.7231 40.3637 12.5678 40.4148 12.3953H38.7102Z" fill="white"/>
<path d="M54.2727 12.4124C54.2557 12.4124 54.2387 12.3952 54.2387 12.3779H41.4546C41.4205 12.4814 41.3693 12.6022 41.3523 12.7057C41.7614 12.6712 42.1875 12.6367 42.6307 12.6367H45.4603V21.798C46.2273 22.0913 49.5852 23.5578 50.5909 23.9028V12.654H53.4205C53.8125 12.654 54.1875 12.6712 54.5625 12.7057C54.4603 12.585 54.3921 12.4814 54.2727 12.4124Z" fill="white"/>
<path d="M45.4432 23.2644V28.561C46.0398 28.8716 46.5853 29.2511 47.1819 29.5962C48.2557 30.2173 49.4319 30.6831 50.5739 31.1662V25.1622C48.7841 24.7481 47.1137 24.0235 45.4432 23.2644Z" fill="white"/>
<path d="M50.5567 49.972V32.1843C49.6192 31.7875 45.7329 30.0449 45.4261 29.8896V49.972H40.5681V50.248H55.4147V49.972H50.5567Z" fill="white"/>
<path d="M58.2444 13.6719C58.2444 13.2406 58.2614 12.8093 58.2955 12.3779H55.6194C55.7387 12.4987 55.7387 12.7057 55.6535 12.8438C56.608 13.0335 57.4603 13.3096 58.2444 13.6719Z" fill="white"/>
<path d="M59.4545 12.3953C59.4034 13.0509 59.4375 13.7065 59.4545 14.3621C62.0113 16.0874 63.4772 19.0031 63.8693 22.4364H64.142V12.3953H59.4545Z" fill="white"/>
<path d="M44.5909 46.7284C39.5455 45.0376 36.8353 40.1378 35.6762 35.238H35.4034V47.2978H35.6762C36.0512 46.3834 36.6989 45.3482 38.0796 45.3482C39.7671 45.3482 41.983 46.4179 44.625 47.0907C44.608 46.97 44.5909 46.8492 44.5909 46.7284Z" fill="white"/>
<path d="M48.5284 47.3494C47.5398 47.3494 46.6193 47.2459 45.75 47.0562C45.75 47.1597 45.767 47.2459 45.767 47.3494C46.6534 47.522 47.5739 47.6255 48.5284 47.6255C49.0909 47.6255 49.6364 47.591 50.1818 47.5565C50.1818 47.453 50.1989 47.3667 50.1989 47.2632C49.6705 47.3149 49.108 47.3494 48.5284 47.3494Z" fill="white"/>
<path d="M48.6988 24.1616C41.0625 21.1941 39.6648 18.4854 39.6648 15.5179C39.6648 12.1709 42.2216 8.97909 47.7273 8.97909C53.4375 8.97909 56.8125 12.93 58.2954 18.9857H58.517V9.44492H58.2443C57.8182 10.3593 57.4943 10.9114 56.1136 10.9114C54.0341 10.9114 52.3807 8.68579 47.7273 8.68579C41.2159 8.68579 36.0852 12.792 36.0852 18.3646C36.0852 23.8338 39.2898 26.3699 46.4488 29.51C52.8579 32.3739 58.0909 33.9439 58.0909 39.2406C58.0909 43.6228 55.5341 46.3142 51.3409 47.1078C51.3409 47.2286 51.3409 47.3321 51.3238 47.4529C58.0909 46.573 62.0966 42.4496 62.0966 36.8252C62.0966 31.7183 59.6932 28.5438 48.6988 24.1616Z" fill="white"/>
<path d="M2.53977 60.3407V69.847H3.76705V69.9161H0V69.847H1.24432V60.3407H0V60.2717H3.76705V60.3407H2.53977Z" fill="white"/>
<path d="M14.7443 60.2717V60.3407H13.5V70.0023H13.3636L6.9716 60.7893V69.8471H8.19887V69.9161H5.67615V69.8471H6.90342V60.7031L6.64774 60.3407H5.67615V60.2717H8.07956L13.4318 67.863V60.3407H12.2216V60.2717H14.7443Z" fill="white"/>
<path d="M25.9261 60.2717V60.3407H24.6818V70.0023H24.5454L18.1534 60.7893V69.8471H19.3806V69.9161H16.8579V69.8471H18.0852V60.7031L17.8295 60.3407H16.8579V60.2717H19.2443L24.6136 67.863V60.3407H23.4034V60.2717H25.9261Z" fill="white"/>
<path d="M38.0284 65.0853C38.0284 67.7077 36.1363 70.0541 33.3068 70.0541C30.4773 70.0541 28.5852 67.7077 28.5852 65.0853C28.5852 62.4456 30.4773 60.1165 33.3068 60.1165C36.1363 60.1337 38.0284 62.4628 38.0284 65.0853ZM36.6477 65.0853C36.6477 63.0839 35.9829 60.1855 33.2898 60.1855C30.6136 60.1855 29.9488 63.0839 29.9488 65.0853C29.9488 67.0694 30.6136 69.9851 33.2898 69.9851C35.9829 69.9851 36.6477 67.0694 36.6477 65.0853Z" fill="white"/>
<path d="M48.5284 60.3407H47.6761L44.1477 70.0023H44.0454L40.4999 60.3407H39.2556V60.2717H43.0227V60.3407H41.7954L44.7102 68.2253L47.6079 60.3407H46.5852V60.2717H48.5284V60.3407Z" fill="white"/>
<path d="M58.0738 69.8471V69.9161H54.3068V69.8471H55.534L54.3579 66.6035H50.9318L49.7556 69.8471H50.7613V69.9161H48.8181V69.8471H49.6704L53.1988 60.1682H53.3011L56.8465 69.8471H58.0738ZM54.3068 66.5345L52.6022 61.928L50.9318 66.5345H54.3068Z" fill="white"/>
<path d="M66.4944 60.2717V62.8424H66.4262C66.2557 61.4277 65.3864 60.3407 63.75 60.3407H63.0341V69.847H64.2784V69.9161H60.4944V69.847H61.7387V60.3407H61.0228C59.3864 60.3407 58.5341 61.4104 58.3466 62.8424H58.2784V60.2717H66.4944Z" fill="white"/>
<path d="M72.3069 60.3407V69.847H73.5341V69.9161H69.7671V69.847H71.0114V60.3407H69.7671V60.2717H73.5341V60.3407H72.3069Z" fill="white"/>
<path d="M85.2955 65.0853C85.2955 67.7077 83.4034 70.0541 80.5739 70.0541C77.7443 70.0541 75.8523 67.7077 75.8523 65.0853C75.8523 62.4456 77.7443 60.1165 80.5739 60.1165C83.4034 60.1337 85.2955 62.4628 85.2955 65.0853ZM83.9318 65.0853C83.9318 63.0839 83.2671 60.1855 80.5739 60.1855C77.8977 60.1855 77.233 63.0839 77.233 65.0853C77.233 67.0694 77.8977 69.9851 80.5739 69.9851C83.2671 69.9851 83.9318 67.0694 83.9318 65.0853Z" fill="white"/>
<path d="M95.9999 60.2717V60.3407H94.7556V70.0023H94.6192L88.2272 60.7893V69.8471H89.4545V69.9161H86.9318V69.8471H88.159V60.7031L87.9034 60.3407H86.9318V60.2717H89.3352L94.6874 67.863V60.3407H93.4772V60.2717H95.9999Z" fill="white"/>
<path d="M47.9999 0.904785C55.4147 0.904785 62.1477 3.95854 67.0056 8.8756C71.8636 13.7927 74.8806 20.6075 74.8806 28.1125C74.8806 35.6175 71.8636 42.4324 67.0056 47.3494C62.1477 52.2665 55.4147 55.3203 47.9999 55.3203C40.5852 55.3203 33.8522 52.2665 28.9943 47.3494C24.1363 42.4324 21.1193 35.6348 21.1193 28.1125C21.1193 20.6075 24.1363 13.7927 28.9943 8.8756C33.8522 3.95854 40.5852 0.904785 47.9999 0.904785ZM66.034 9.85901C61.4147 5.18349 55.0397 2.30227 47.9999 2.30227C40.9602 2.30227 34.5852 5.18349 29.9659 9.85901C25.3465 14.5345 22.4999 20.9871 22.4999 28.1125C22.4999 35.2379 25.3465 41.6905 29.9659 46.366C34.5852 51.0415 40.9602 53.9228 47.9999 53.9228C55.0397 53.9228 61.4147 51.0415 66.034 46.366C70.6534 41.6905 73.4999 35.2379 73.4999 28.1125C73.4999 20.9871 70.6534 14.5345 66.034 9.85901Z" fill="white"/>
<path d="M73.0739 28.1125C73.0739 21.1078 70.2614 14.7588 65.7273 10.1695C61.1932 5.56303 54.9205 2.71631 48 2.71631C41.0796 2.71631 34.8068 5.56303 30.2727 10.1523C25.7386 14.7415 22.9261 21.0906 22.9261 28.0952C22.9261 35.0999 25.7386 41.4489 30.2727 46.0382C34.8068 50.6274 41.0796 53.4742 48 53.4742C54.9205 53.4742 61.1932 50.6274 65.7273 46.0382C70.2784 41.4662 73.0739 35.1171 73.0739 28.1125ZM48 52.7323C41.2841 52.7323 35.1989 49.9718 30.8011 45.5206C26.4034 41.0694 23.6761 34.9101 23.6761 28.1125C23.6761 21.3149 26.4034 15.1556 30.8011 10.7044C35.1989 6.25314 41.2841 3.49269 48 3.49269C54.7159 3.49269 60.8012 6.25314 65.1989 10.7044C69.5966 15.1556 72.3239 21.3149 72.3239 28.1125C72.3239 34.9101 69.5966 41.0694 65.1989 45.5206C60.8012 49.9718 54.7159 52.7323 48 52.7323Z" fill="white"/>
<path d="M12.375 73.6082C12.4261 73.6254 12.4772 73.6427 12.5625 73.6599C12.6477 73.6772 12.75 73.6944 12.8522 73.7117C12.9545 73.7289 13.0568 73.7289 13.142 73.7289L12.3579 73.7979V73.6082H12.375ZM16.0738 73.7289V73.9187H12.375V73.7289H16.0738ZM12.8181 73.9015V73.9187C12.7159 73.9187 12.6136 73.9705 12.5454 74.0395C12.4772 74.1085 12.4431 74.212 12.4431 74.3155V74.419H12.375V73.9015H12.8181ZM14.0284 77.7834V78.2492H13.517V78.1975H13.6022C13.7045 78.1975 13.8068 78.1629 13.892 78.0767C13.9772 77.9904 14.0113 77.9042 14.0113 77.7834H14.0284ZM14.4204 73.7462V78.2492H14.0113V73.7462H14.4204ZM14.4034 77.7834H14.4204C14.4204 77.9042 14.4716 77.9904 14.5397 78.0767C14.625 78.1629 14.7102 78.1975 14.8295 78.1975H14.9147V78.2665H14.4034V77.7834ZM16.0738 73.6082V73.7979L15.2897 73.7289C15.375 73.7289 15.4772 73.7289 15.5795 73.7117C15.6818 73.6944 15.7841 73.6772 15.8693 73.6599C15.9716 73.6427 16.0397 73.6254 16.0738 73.6082ZM16.0738 73.9015V74.419H16.0056V74.3155C16.0056 74.212 15.9716 74.1085 15.8863 74.0395C15.8181 73.9705 15.7159 73.936 15.6136 73.9187V73.9015H16.0738Z" fill="white"/>
<path d="M17.1306 74.7813C17.1136 74.6777 17.0795 74.5915 17.0113 74.5397C16.9431 74.488 16.8579 74.4362 16.7556 74.4362H16.6704V74.3672H17.2159L17.1306 74.7813ZM17.1306 77.8523L17.2159 78.2663H16.6704V78.1973H16.7556C16.8579 78.1973 16.9431 78.1628 17.0113 78.0938C17.0795 78.0248 17.1136 77.9385 17.1306 77.8523ZM17.5227 74.3672V78.2491H17.1136V74.3672H17.5227ZM17.5056 77.8523H17.5227C17.5227 77.9385 17.5568 78.0248 17.625 78.0938C17.6931 78.1628 17.7784 78.1973 17.8806 78.1973H17.9659V78.2663H17.4204L17.5056 77.8523ZM18.2727 74.3672C18.4772 74.3672 18.6477 74.3844 18.8181 74.4362C18.9715 74.488 19.1079 74.557 19.2272 74.6432C19.3465 74.7295 19.4318 74.8503 19.4829 74.971C19.534 75.1091 19.5681 75.2471 19.5681 75.4024C19.5681 75.5921 19.517 75.7474 19.4318 75.9027C19.3465 76.058 19.2272 76.1787 19.0738 76.2822C18.9204 76.3858 18.75 76.4375 18.5625 76.4548C18.6306 76.4893 18.7159 76.5583 18.8181 76.6618C18.9204 76.7653 18.9886 76.8688 19.0568 76.9724C19.1761 77.1276 19.2613 77.2484 19.3465 77.3692C19.4318 77.4899 19.517 77.5762 19.6022 77.6797C19.6875 77.7832 19.7727 77.8695 19.8409 77.9385C19.909 78.0075 19.9943 78.0765 20.0795 78.111C20.1647 78.1456 20.267 78.1801 20.3863 78.1801V78.2491H20.1818C19.9431 78.2491 19.7556 78.2146 19.6022 78.1628C19.4488 78.111 19.3295 78.0248 19.2272 77.9385C19.125 77.8523 19.0568 77.766 18.9886 77.6797C18.9715 77.6625 18.9375 77.6107 18.8693 77.5072C18.8011 77.4209 18.7329 77.3174 18.6647 77.2139C18.5965 77.1104 18.5284 77.0241 18.4602 76.9379C18.392 76.8516 18.3579 76.7998 18.3579 76.7826C18.2727 76.6618 18.1704 76.5755 18.0681 76.4893C17.9659 76.403 17.8465 76.3513 17.7102 76.3513V76.2995C17.8465 76.2995 17.9659 76.2995 18.0681 76.2995C18.1875 76.2995 18.3068 76.2822 18.4261 76.265C18.5454 76.2477 18.6647 76.196 18.767 76.127C18.8693 76.0407 18.9545 75.9199 19.0056 75.7302C19.0227 75.6784 19.0397 75.6266 19.0397 75.5576C19.0397 75.4886 19.0568 75.4196 19.0397 75.3506C19.0397 75.2298 19.0056 75.1263 18.9715 75.0228C18.9375 74.9365 18.8693 74.8503 18.8011 74.7813C18.7329 74.7122 18.6306 74.6605 18.5284 74.626C18.4261 74.5915 18.3068 74.5742 18.1875 74.557C17.9829 74.557 17.8125 74.5397 17.659 74.557C17.5056 74.557 17.4375 74.557 17.4375 74.557C17.4375 74.557 17.4375 74.5397 17.4204 74.5052C17.4034 74.4707 17.3863 74.4189 17.3693 74.3672H18.2727Z" fill="white"/>
<path d="M21.3579 77.7832C21.3067 77.9213 21.3238 78.0075 21.3749 78.0765C21.426 78.1456 21.5113 78.1801 21.5795 78.1801H21.6306V78.2491H20.4033V78.1973H20.4545C20.5397 78.1973 20.642 78.1628 20.7272 78.111C20.8124 78.042 20.8976 77.9385 20.9658 77.8005H21.3579V77.7832ZM22.5851 74.2809L22.6363 74.7295L21.1704 78.2318H20.7613L22.2783 74.9365C22.3295 74.833 22.3635 74.7467 22.3976 74.6605C22.4317 74.5742 22.4658 74.5052 22.4829 74.4362C22.517 74.3672 22.517 74.2982 22.534 74.2637H22.5851V74.2809ZM23.3351 76.7481V76.9379H21.6476V76.7481H23.3351ZM22.5851 74.2809L24.3408 78.2146H23.8295L22.4658 74.8503L22.5851 74.2809ZM23.659 77.7832H24.1533C24.2215 77.9385 24.2897 78.042 24.392 78.0938C24.4772 78.1628 24.5795 78.1801 24.6647 78.1801H24.7158V78.2491H23.4033V78.1973H23.4545C23.5226 78.1973 23.5908 78.1628 23.659 78.0938C23.7101 78.0075 23.7101 77.9213 23.659 77.7832Z" fill="white"/>
<path d="M25.6874 74.7813H25.6704C25.6704 74.6777 25.6192 74.5915 25.534 74.5397C25.4488 74.4707 25.3465 74.4362 25.2272 74.4362C25.2272 74.4362 25.1931 74.4362 25.142 74.4362V74.3672H25.6874V74.7813ZM25.6874 77.8523V78.2663H25.142V78.1973H25.2272C25.3465 78.1973 25.4488 78.1628 25.534 78.0938C25.6192 78.0248 25.6533 77.9385 25.6704 77.8523H25.6874ZM26.0795 74.3672V78.2491H25.6704V74.3672H26.0795ZM26.0624 74.7813V74.3672H26.6079V74.4362H26.5227C26.4033 74.4362 26.3011 74.4707 26.2158 74.5397C26.1306 74.6087 26.0965 74.695 26.0795 74.7813H26.0624ZM26.0624 77.8523H26.0795C26.0795 77.9385 26.1306 78.0248 26.2158 78.0938C26.3011 78.1628 26.4033 78.1973 26.5227 78.1973H26.6079V78.2663H26.0624V77.8523Z" fill="white"/>
<path d="M27.7671 77.8524V78.2492H27.2898V78.1974H27.3921C27.4943 78.1974 27.5796 78.1629 27.6477 78.0939C27.7159 78.0249 27.75 77.9559 27.75 77.8524H27.7671ZM27.75 74.281L28.0227 74.6433V78.2664H27.733V75.0919C27.733 74.8676 27.7159 74.6088 27.6818 74.281H27.75ZM27.75 74.281L31.2955 77.6626L31.3637 78.3527L27.8182 74.9539L27.75 74.281ZM28.0398 77.8524C28.0398 77.9386 28.0739 78.0249 28.1421 78.0939C28.2102 78.1629 28.2955 78.1974 28.3807 78.1974H28.483V78.2664H28.0057V77.8524H28.0398ZM31.0739 74.7813C31.0739 74.6951 31.0398 74.6088 30.9716 74.5398C30.9034 74.4708 30.8182 74.4363 30.7159 74.4363H30.6137V74.3673H31.0909L31.0739 74.7813ZM31.3637 74.3673V77.5073C31.3637 77.6453 31.3637 77.7833 31.3807 77.9041C31.3807 78.0249 31.3977 78.1802 31.4318 78.3354H31.3637L31.0739 77.9904V74.3673H31.3637ZM31.3466 74.7813V74.3845H31.8239V74.4535H31.7046C31.6023 74.4535 31.5341 74.488 31.4659 74.5571C31.3977 74.6261 31.3637 74.6951 31.3637 74.7986H31.3466V74.7813Z" fill="white"/>
<path d="M33.0511 74.7813H33.034C33.034 74.6777 32.9829 74.5915 32.8977 74.5397C32.8124 74.4707 32.7102 74.4362 32.5908 74.4362C32.5908 74.4362 32.5568 74.4362 32.5056 74.4362V74.3672H33.0511V74.7813ZM33.0511 77.8523V78.2663H32.5056V78.1973H32.5908C32.7102 78.1973 32.8124 78.1628 32.8977 78.0938C32.9829 78.0248 33.017 77.9385 33.034 77.8523H33.0511ZM33.4431 74.3672V78.2491H33.034V74.3672H33.4431ZM33.4261 74.7813V74.3672H33.9715V74.4362H33.8863C33.767 74.4362 33.6647 74.4707 33.5795 74.5397C33.4943 74.6087 33.4602 74.695 33.4431 74.7813H33.4261ZM33.4261 77.8523H33.4431C33.4431 77.9385 33.4943 78.0248 33.5795 78.0938C33.6647 78.1628 33.767 78.1973 33.8863 78.1973H33.9715V78.2663H33.4261V77.8523Z" fill="white"/>
<path d="M35.1306 77.8524V78.2492H34.6533V78.1974H34.7556C34.8579 78.1974 34.9431 78.1629 35.0113 78.0939C35.0795 78.0249 35.1135 77.9559 35.1135 77.8524H35.1306ZM35.1135 74.281L35.3863 74.6433V78.2664H35.1135V75.0919C35.1135 74.8676 35.0965 74.6088 35.0624 74.281H35.1135ZM35.1135 74.281L38.659 77.6626L38.7272 78.3527L35.1817 74.9539L35.1135 74.281ZM35.4033 77.8524C35.4033 77.9386 35.4374 78.0249 35.5056 78.0939C35.5738 78.1629 35.659 78.1974 35.7442 78.1974H35.8465V78.2664H35.3692V77.8524H35.4033ZM38.4374 74.7813C38.4374 74.6951 38.4033 74.6088 38.3351 74.5398C38.267 74.4708 38.1817 74.4363 38.0795 74.4363H37.9772V74.3673H38.4545L38.4374 74.7813ZM38.7272 74.3673V77.5073C38.7272 77.6453 38.7272 77.7833 38.7442 77.9041C38.7442 78.0249 38.7613 78.1802 38.7954 78.3354H38.7442L38.4545 77.9904V74.3673H38.7272ZM38.7101 74.7813V74.3845H39.1874V74.4535H39.0851C38.9829 74.4535 38.9147 74.488 38.8465 74.5571C38.7783 74.6261 38.7442 74.6951 38.7442 74.7986H38.7101V74.7813Z" fill="white"/>
<path d="M41.9147 74.281C42.1022 74.281 42.2897 74.2983 42.4602 74.3155C42.6306 74.35 42.8011 74.3845 42.9545 74.4535C43.1079 74.5053 43.2613 74.5916 43.3977 74.6778L43.534 75.5922H43.4829C43.4147 75.3334 43.3295 75.1264 43.1931 74.9711C43.0568 74.7986 42.8863 74.6778 42.6647 74.6088C42.4431 74.5225 42.1874 74.488 41.8977 74.488C41.5738 74.488 41.284 74.5571 41.0454 74.7123C40.8068 74.8676 40.6022 75.0746 40.4658 75.3507C40.3295 75.6267 40.2613 75.9545 40.2613 76.3341C40.2613 76.7137 40.3295 77.0415 40.4658 77.3175C40.6022 77.5935 40.7897 77.8006 41.0454 77.9559C41.3011 78.1111 41.5738 78.1801 41.8977 78.1801C42.0852 78.1801 42.2556 78.1629 42.409 78.1284C42.5624 78.0939 42.7329 78.0249 42.8863 77.9386C43.0397 77.8523 43.1761 77.7488 43.3124 77.6108V76.7482C43.3124 76.6619 43.2954 76.6101 43.2443 76.5584C43.1931 76.5239 43.1249 76.4894 43.0227 76.4894H42.9374V76.4204H44.1136V76.4894H44.0283C43.8408 76.4894 43.7386 76.5756 43.7386 76.7482V77.5245C43.6363 77.6453 43.4999 77.7833 43.3295 77.9041C43.159 78.0421 42.9545 78.1456 42.7158 78.2319C42.4772 78.3182 42.2045 78.3699 41.9147 78.3699C41.4886 78.3699 41.1306 78.2837 40.8068 78.1111C40.4999 77.9386 40.2443 77.7143 40.0738 77.4038C39.9033 77.0932 39.8181 76.7482 39.8181 76.3168C39.8181 75.8855 39.9033 75.5232 40.0738 75.2299C40.2443 74.9194 40.4999 74.6951 40.8068 74.5225C41.1306 74.3673 41.4886 74.281 41.9147 74.281Z" fill="white"/>
<path d="M47.676 73.6426C47.7442 73.6426 47.8124 73.6426 47.8976 73.6598C47.9829 73.6771 48.051 73.6771 48.1363 73.6943C48.2045 73.7116 48.2726 73.7288 48.3408 73.7461C48.409 73.7633 48.4431 73.7806 48.4772 73.7979V74.5225H48.426C48.426 74.3154 48.3579 74.1602 48.2215 74.0394C48.0851 73.9186 47.9147 73.8669 47.7101 73.8669C47.4715 73.8669 47.284 73.9359 47.1476 74.0911C46.9942 74.2464 46.926 74.4189 46.926 74.6087C46.926 74.695 46.9431 74.7813 46.9772 74.902C47.0113 75.0228 47.0795 75.1091 47.1817 75.2126L48.4431 76.3858C48.5795 76.5065 48.6647 76.6445 48.6988 76.7826C48.7499 76.9206 48.767 77.0586 48.767 77.1794C48.767 77.5417 48.6647 77.835 48.4431 78.0593C48.2215 78.2836 47.9317 78.4043 47.5738 78.4043C47.4715 78.4043 47.3522 78.3871 47.2158 78.3698C47.0795 78.3526 46.9431 78.3181 46.8067 78.249C46.6704 78.18 46.5681 78.1283 46.4829 78.042C46.4658 77.973 46.4658 77.8867 46.4658 77.7832C46.4658 77.6797 46.4658 77.5762 46.4829 77.4554C46.4999 77.3347 46.517 77.2311 46.551 77.1449H46.6022C46.5851 77.3692 46.6022 77.5589 46.6874 77.7142C46.7726 77.8695 46.8749 78.0075 47.0283 78.0938C47.1817 78.18 47.3351 78.2145 47.5226 78.2145C47.7613 78.1973 47.9658 78.111 48.1192 77.973C48.2897 77.8177 48.3749 77.6107 48.3749 77.3519C48.3749 77.2311 48.3579 77.1104 48.3067 77.0069C48.2556 76.9033 48.2045 76.8171 48.1192 76.7481L46.892 75.5921C46.7556 75.4714 46.6704 75.3333 46.6192 75.1953C46.5681 75.0573 46.534 74.9193 46.534 74.7985C46.534 74.6087 46.5851 74.4362 46.6704 74.2809C46.7556 74.1084 46.8749 73.9704 47.0454 73.8669C47.2329 73.6943 47.4374 73.6426 47.676 73.6426ZM48.4772 73.6943V73.8324H47.9829V73.6943H48.4772Z" fill="white"/>
<path d="M50.0625 74.7814C50.0454 74.6779 50.0113 74.5916 49.9432 74.5399C49.875 74.4709 49.7897 74.4364 49.6875 74.4364H49.6023V74.3673H50.1647L50.0625 74.7814ZM50.0625 77.8525L50.1477 78.2665H49.5852V78.1975H49.6704C49.7727 78.1975 49.8579 78.163 49.9261 78.094C50.0113 78.025 50.0454 77.9387 50.0625 77.8525ZM50.4545 74.3673V78.2493H50.0454V74.3673H50.4545ZM50.4375 77.8525C50.4545 77.9387 50.4886 78.025 50.5568 78.094C50.625 78.163 50.7102 78.1975 50.8125 78.1975C50.8125 78.1975 50.8466 78.1975 50.8977 78.1975V78.2665H50.3352L50.4375 77.8525ZM51.0852 74.3673C51.392 74.3673 51.6477 74.4191 51.8522 74.5054C52.0738 74.5916 52.2443 74.7297 52.3636 74.8849C52.4829 75.0402 52.5511 75.2473 52.5511 75.4715C52.5511 75.7131 52.5 75.9201 52.3806 76.1099C52.2784 76.2824 52.125 76.4205 51.9545 76.5067C51.767 76.593 51.5795 76.6448 51.3579 76.6448C51.1363 76.6448 50.9147 76.593 50.7102 76.4722V76.4032C50.8466 76.4205 50.9829 76.4377 51.0852 76.4377C51.1875 76.4377 51.3068 76.4205 51.4431 76.386C51.5625 76.3515 51.6818 76.2824 51.784 76.1789C51.8863 76.0754 51.9715 75.9374 52.0397 75.7476C52.0568 75.6958 52.0738 75.6441 52.0738 75.5751C52.0738 75.506 52.0909 75.4543 52.0909 75.3853C52.0909 75.1265 52.0056 74.9194 51.8181 74.7642C51.6477 74.6089 51.392 74.5399 51.0681 74.5399H50.4375C50.4204 74.4709 50.3863 74.4019 50.3693 74.3501H51.0852V74.3673Z" fill="white"/>
<path d="M53.7102 74.7813C53.6931 74.6777 53.659 74.5915 53.5909 74.5397C53.5227 74.4707 53.4375 74.4362 53.3352 74.4362H53.25V74.3672H53.8125L53.7102 74.7813ZM53.7102 77.8523L53.7954 78.2663H53.2329V78.1973H53.3181C53.4204 78.1973 53.5056 78.1628 53.5738 78.0938C53.659 78.0248 53.6931 77.9385 53.7102 77.8523ZM54.1193 74.3672V78.2491H53.7102V74.3672H54.1193ZM55.8238 74.3672V74.5742H54.1022V74.3672H55.8238ZM55.5341 76.2132V76.403H54.1022V76.2132H55.5341ZM55.8409 78.0593L55.8238 78.2663H54.1022V78.0593H55.8409ZM56.1988 77.3347L55.8409 78.2663H54.8693L55.0909 78.0593C55.3125 78.0593 55.4829 78.0248 55.6022 77.973C55.7386 77.904 55.8409 77.8177 55.9261 77.7142C56.0113 77.6107 56.0795 77.4727 56.1306 77.3347H56.1988ZM55.8238 74.2637V74.4362L55.0909 74.3672C55.2272 74.3672 55.3636 74.3499 55.517 74.3327C55.6704 74.3154 55.7727 74.2982 55.8238 74.2637ZM55.5341 75.8682V76.2305H55.1931V76.2132C55.2784 76.2132 55.3466 76.1787 55.3977 76.127C55.4318 76.0752 55.4659 76.0062 55.4659 75.9372V75.8509H55.5341V75.8682ZM55.5341 76.403V76.7653H55.4659V76.6791C55.4659 76.6101 55.4488 76.541 55.3977 76.4893C55.3466 76.4375 55.2954 76.403 55.1931 76.403V76.3858H55.5341V76.403ZM55.8238 74.557V75.0055H55.7556V74.902C55.7556 74.8158 55.7216 74.7295 55.6704 74.6605C55.6193 74.5915 55.5341 74.557 55.4318 74.557V74.5397H55.8238V74.557Z" fill="white"/>
<path d="M60.767 76.6273L60.6988 77.5072C60.5795 77.6797 60.4432 77.835 60.2557 77.9558C60.0682 78.0766 59.8807 78.1801 59.642 78.2491C59.4204 78.3181 59.1818 78.3526 58.9261 78.3526C58.5 78.3526 58.125 78.2663 57.8011 78.0938C57.4773 77.9213 57.2386 77.697 57.0682 77.3864C56.8977 77.0759 56.8125 76.7308 56.8125 76.2995C56.8125 75.8682 56.8977 75.5059 57.0682 75.2126C57.2386 74.902 57.4773 74.6777 57.8011 74.5052C58.125 74.3327 58.5 74.2637 58.9261 74.2637C59.1818 74.2637 59.4545 74.2982 59.7273 74.3672C60 74.4362 60.2216 74.5397 60.4261 74.6605L60.5625 75.5749H60.5113C60.4091 75.1781 60.2216 74.8848 59.9488 74.7122C59.6591 74.5397 59.3182 74.4534 58.9261 74.4534C58.5852 74.4534 58.2954 74.5225 58.0568 74.6777C57.8182 74.833 57.6307 75.04 57.4943 75.3161C57.358 75.5921 57.2898 75.9199 57.2898 76.2995C57.2898 76.6791 57.358 76.9896 57.4943 77.2657C57.6307 77.5417 57.8182 77.7487 58.0739 77.904C58.3125 78.0593 58.6193 78.1283 58.9432 78.1283C59.267 78.1283 59.5568 78.0766 59.8125 77.973C60.0682 77.8695 60.2727 77.697 60.4432 77.4727C60.6136 77.2484 60.6988 76.9551 60.7159 76.6101H60.767V76.6273Z" fill="white"/>
<path d="M62.0284 74.7813H62.0113C62.0113 74.6777 61.9602 74.5915 61.875 74.5397C61.7897 74.4707 61.6875 74.4362 61.5681 74.4362C61.5681 74.4362 61.534 74.4362 61.4829 74.4362V74.3672H62.0284V74.7813ZM62.0284 77.8523V78.2663H61.4829V78.1973H61.5681C61.6875 78.1973 61.7897 78.1628 61.875 78.0938C61.9602 78.0248 61.9943 77.9385 62.0113 77.8523H62.0284ZM62.4034 74.3672V78.2491H61.9943V74.3672H62.4034ZM62.3863 74.7813V74.3672H62.9318V74.4362H62.8466C62.7272 74.4362 62.625 74.4707 62.5397 74.5397C62.4545 74.6087 62.4204 74.695 62.4034 74.7813H62.3863ZM62.3863 77.8523H62.4034C62.4034 77.9385 62.4545 78.0248 62.5397 78.0938C62.625 78.1628 62.7272 78.1973 62.8466 78.1973H62.9318V78.2663H62.3863V77.8523Z" fill="white"/>
<path d="M64.3125 77.7832C64.2613 77.9213 64.2784 78.0075 64.3295 78.0765C64.3806 78.1456 64.4659 78.1801 64.534 78.1801H64.5852V78.2491H63.3579V78.1973H63.409C63.4943 78.1973 63.5965 78.1628 63.6818 78.111C63.767 78.042 63.8522 77.9385 63.9204 77.8005H64.3125V77.7832ZM65.5568 74.2809L65.6079 74.7295L64.142 78.2318H63.7329L65.25 74.9365C65.3011 74.833 65.3352 74.7467 65.3693 74.6605C65.4034 74.5742 65.4375 74.5052 65.4545 74.4362C65.4886 74.3672 65.4886 74.2982 65.5056 74.2637H65.5568V74.2809ZM66.3068 76.7481V76.9379H64.6193V76.7481H66.3068ZM65.5568 74.2809L67.3125 78.2146H66.8011L65.4375 74.8503L65.5568 74.2809ZM66.6306 77.7832H67.125C67.1931 77.9385 67.2613 78.042 67.3636 78.0938C67.4659 78.1456 67.5511 78.1801 67.6363 78.1801H67.6875V78.2491H66.375V78.1973H66.4261C66.4943 78.1973 66.5625 78.1628 66.6306 78.0938C66.6647 78.0075 66.6818 77.9213 66.6306 77.7832Z" fill="white"/>
<path d="M68.5909 74.7813C68.5739 74.6777 68.5398 74.5915 68.4546 74.5397C68.3864 74.4707 68.2841 74.4362 68.1818 74.4362H68.1136V74.3672H68.5909V74.7813ZM68.5909 77.8523L68.6761 78.2663H68.1136V78.1973H68.1989C68.3011 78.1973 68.3864 78.1628 68.4546 78.0938C68.5398 78.0248 68.5739 77.9385 68.5909 77.8523ZM68.983 74.3672V78.2491H68.5739V74.3672H68.983ZM68.9659 74.7813V74.3672H69.4432V74.4362H69.358C69.2557 74.4362 69.1705 74.4707 69.0852 74.5397C69.0171 74.6087 68.9659 74.695 68.9659 74.7813ZM70.7045 78.0593L70.6875 78.2663H68.9659V78.0593H70.7045ZM71.0625 77.3347L70.7045 78.2663H69.733L69.9545 78.0593C70.1761 78.0593 70.3466 78.0248 70.4659 77.973C70.6023 77.904 70.7045 77.8177 70.7898 77.7142C70.875 77.6107 70.9432 77.4727 70.9943 77.3347H71.0625Z" fill="white"/>
<path d="M72.0511 74.7813H72.034C72.034 74.6777 71.9829 74.5915 71.8977 74.5397C71.8124 74.4707 71.7102 74.4362 71.5908 74.4362C71.5908 74.4362 71.5568 74.4362 71.5056 74.4362V74.3672H72.0511V74.7813ZM72.0511 77.8523V78.2663H71.5056V78.1973H71.5908C71.7102 78.1973 71.8124 78.1628 71.8977 78.0938C71.9829 78.0248 72.017 77.9385 72.034 77.8523H72.0511ZM72.4431 74.3672V78.2491H72.034V74.3672H72.4431ZM72.4261 74.7813V74.3672H72.9715V74.4362H72.8863C72.767 74.4362 72.6647 74.4707 72.5795 74.5397C72.4942 74.6087 72.4602 74.695 72.4431 74.7813H72.4261ZM72.4261 77.8523H72.4431C72.4431 77.9385 72.4942 78.0248 72.5795 78.0938C72.6647 78.1628 72.767 78.1973 72.8863 78.1973H72.9715V78.2663H72.4261V77.8523Z" fill="white"/>
<path d="M74.9317 74.281C75.051 74.281 75.1533 74.281 75.2385 74.2983C75.3238 74.3155 75.409 74.3155 75.4772 74.3328C75.5454 74.35 75.5965 74.35 75.6476 74.3673C75.6988 74.3845 75.7329 74.4018 75.784 74.4018V75.0401H75.6988C75.6988 74.8676 75.6306 74.7296 75.5113 74.6261C75.392 74.5225 75.2045 74.4708 74.9488 74.4708C74.7272 74.4708 74.5567 74.5225 74.4033 74.6433C74.2499 74.7641 74.1817 74.9021 74.1817 75.0746C74.1817 75.1264 74.1817 75.1954 74.1988 75.2472C74.2158 75.2989 74.2329 75.3679 74.284 75.4197C74.3181 75.4715 74.3692 75.5405 74.4374 75.5922L75.7329 76.6101C75.8351 76.6964 75.9033 76.7999 75.9545 76.9207C76.0056 77.0415 76.0226 77.1795 76.0397 77.3003C76.0397 77.49 75.9886 77.6626 75.8863 77.8179C75.784 77.9731 75.6476 78.1112 75.4772 78.1974C75.3067 78.2837 75.1192 78.3354 74.8976 78.3354C74.7783 78.3354 74.642 78.3182 74.5056 78.3009C74.3692 78.2837 74.2329 78.2492 74.1135 78.1974C73.9942 78.1457 73.8919 78.0939 73.8067 78.0249C73.7897 77.9731 73.7897 77.8869 73.7897 77.8006C73.7897 77.7143 73.7897 77.6108 73.8067 77.5073C73.8238 77.4038 73.8408 77.3175 73.8749 77.2313H73.9601C73.9431 77.421 73.9772 77.5936 74.0454 77.7316C74.1135 77.8696 74.2329 77.9731 74.3692 78.0421C74.5056 78.1112 74.676 78.1457 74.8635 78.1457C75.1363 78.1457 75.3408 78.0766 75.4942 77.9386C75.6476 77.8006 75.7158 77.6453 75.7158 77.4383C75.7158 77.3348 75.6988 77.2485 75.6647 77.1622C75.6306 77.076 75.5624 77.007 75.4942 76.9207L74.2158 75.92C74.0965 75.8165 74.0113 75.6957 73.9772 75.575C73.9431 75.4542 73.909 75.3334 73.909 75.2127C73.909 75.0401 73.9601 74.8676 74.0454 74.7296C74.1306 74.5916 74.267 74.4708 74.4204 74.3845C74.5567 74.3328 74.7272 74.281 74.9317 74.281ZM75.767 74.35V74.4708H75.3067V74.35H75.767Z" fill="white"/>
<path d="M76.6022 74.2637C76.6363 74.2809 76.7044 74.2982 76.7726 74.3154C76.8579 74.3327 76.9431 74.3499 77.0454 74.3499C77.1476 74.3499 77.2329 74.3672 77.3181 74.3672L76.6022 74.4362V74.2637ZM80.1135 74.3672V74.557H76.6022V74.3672H80.1135ZM76.9942 74.557C76.8919 74.5742 76.8238 74.6087 76.7556 74.6777C76.7044 74.7467 76.6704 74.8158 76.6704 74.902V75.0055H76.6022V74.557H76.9942ZM78.1533 77.8523V78.2663H77.6931V78.1973C77.6931 78.1973 77.7272 78.1973 77.7783 78.1973C77.8806 78.1973 77.9658 78.1628 78.034 78.0938C78.1022 78.0248 78.1363 77.9385 78.1533 77.8523ZM78.5624 74.4017V78.2663H78.1533V74.4017H78.5624ZM78.5454 77.8523H78.5624C78.5624 77.9385 78.6135 78.0248 78.6817 78.0938C78.7499 78.1628 78.8351 78.1973 78.9374 78.1973H79.0056V78.2663H78.5454V77.8523ZM80.1135 74.2637V74.4362L79.3976 74.3672C79.4829 74.3672 79.5681 74.3672 79.6704 74.3499C79.7726 74.3327 79.8579 74.3327 79.9431 74.3154C80.0113 74.2982 80.0624 74.2809 80.1135 74.2637ZM80.1135 74.557V75.0055H80.0454V74.902C80.0454 74.8158 80.0113 74.7295 79.9601 74.6777C79.909 74.6087 79.8238 74.5742 79.7215 74.5742V74.557H80.1135Z" fill="white"/>
<path d="M81.8181 74.281C81.9374 74.281 82.0397 74.281 82.1249 74.2983C82.2101 74.3155 82.2954 74.3155 82.3635 74.3328C82.4317 74.35 82.4829 74.35 82.534 74.3673C82.5851 74.3845 82.6192 74.4018 82.6704 74.4018V75.0401H82.5851C82.5851 74.8676 82.5169 74.7296 82.3976 74.6261C82.2783 74.5225 82.0908 74.4708 81.8351 74.4708C81.6135 74.4708 81.4431 74.5225 81.2897 74.6433C81.1363 74.7641 81.0681 74.9021 81.0681 75.0746C81.0681 75.1264 81.0681 75.1954 81.0851 75.2472C81.1022 75.2989 81.1192 75.3679 81.1704 75.4197C81.2044 75.4715 81.2556 75.5405 81.3238 75.5922L82.6192 76.6101C82.7215 76.6964 82.7897 76.7999 82.8408 76.9207C82.8919 77.0415 82.909 77.1795 82.926 77.3003C82.926 77.49 82.8749 77.6626 82.7726 77.8179C82.6704 77.9731 82.534 78.1112 82.3635 78.1974C82.1931 78.2837 82.0056 78.3354 81.784 78.3354C81.6647 78.3354 81.5283 78.3182 81.3919 78.3009C81.2556 78.2837 81.1192 78.2492 80.9999 78.1974C80.8806 78.1457 80.7783 78.0939 80.6931 78.0249C80.676 77.9731 80.676 77.8869 80.676 77.8006C80.676 77.7143 80.676 77.6108 80.6931 77.5073C80.7101 77.4038 80.7272 77.3175 80.7613 77.2313H80.8465C80.8294 77.421 80.8635 77.5936 80.9317 77.7316C80.9999 77.8696 81.1192 77.9731 81.2556 78.0421C81.3919 78.1112 81.5624 78.1457 81.7499 78.1457C82.0226 78.1457 82.2272 78.0766 82.3806 77.9386C82.534 77.8006 82.6022 77.6453 82.6022 77.4383C82.6022 77.3348 82.5851 77.2485 82.551 77.1622C82.5169 77.076 82.4488 77.007 82.3806 76.9207L81.1022 75.92C80.9828 75.8165 80.8976 75.6957 80.8635 75.575C80.8294 75.4542 80.7953 75.3334 80.7953 75.2127C80.7953 75.0401 80.8465 74.8676 80.9317 74.7296C81.0169 74.5916 81.1533 74.4708 81.3067 74.3845C81.4431 74.3328 81.6135 74.281 81.8181 74.281ZM82.6533 74.35V74.4708H82.1931V74.35H82.6533Z" fill="white"/>
</svg>
