<svg width="24" height="24" viewBox="0 0 24 24" fill="none" xmlns="http://www.w3.org/2000/svg">
<path d="M18.3713 14.6178C17.922 14.1507 17.3801 13.9009 16.8058 13.9009C16.2361 13.9009 15.6896 14.1461 15.2218 14.6132L13.7582 16.07C13.6378 16.0053 13.5174 15.9451 13.4016 15.885C13.2348 15.8018 13.0774 15.7231 12.943 15.6399C11.5721 14.7704 10.3262 13.6373 9.13124 12.1712C8.55229 11.4405 8.16324 10.8254 7.88071 10.2011C8.2605 9.85419 8.6125 9.49345 8.95524 9.14659C9.08493 9.01709 9.21461 8.88297 9.3443 8.75347C10.3169 7.78225 10.3169 6.52429 9.3443 5.55307L8.07987 4.29048C7.93629 4.14711 7.78808 3.99911 7.64913 3.85112C7.37124 3.56437 7.07945 3.26838 6.77839 2.99089C6.32913 2.5469 5.79186 2.31104 5.22681 2.31104C4.66175 2.31104 4.11523 2.5469 3.65207 2.99089C3.64743 2.99552 3.64743 2.99552 3.6428 3.00014L2.06806 4.58647C1.47522 5.17845 1.13711 5.89993 1.063 6.73703C0.951845 8.08749 1.35016 9.34546 1.65585 10.1687C2.40617 12.1897 3.52701 14.0628 5.19902 16.07C7.22766 18.4888 9.66851 20.3989 12.4567 21.7447C13.522 22.2488 14.9439 22.8454 16.5325 22.9472C16.6298 22.9518 16.7317 22.9564 16.8243 22.9564C17.8942 22.9564 18.7928 22.5726 19.4968 21.8095C19.5014 21.8002 19.5106 21.7956 19.5153 21.7863C19.7561 21.495 20.034 21.2314 20.3258 20.9492C20.525 20.7596 20.7288 20.5608 20.9279 20.3526C21.3864 19.8763 21.6273 19.3213 21.6273 18.7524C21.6273 18.179 21.3818 17.6286 20.914 17.1661L18.3713 14.6178ZM20.0294 19.4878C20.0248 19.4878 20.0248 19.4924 20.0294 19.4878C19.8488 19.682 19.6635 19.8578 19.4643 20.052C19.1633 20.3388 18.8576 20.6394 18.5704 20.977C18.1026 21.4765 17.5515 21.7123 16.829 21.7123C16.7595 21.7123 16.6854 21.7123 16.6159 21.7077C15.2403 21.6199 13.962 21.0834 13.0033 20.6255C10.3818 19.3583 8.07987 17.5592 6.16702 15.2792C4.58765 13.3783 3.53164 11.6209 2.83227 9.73394C2.40153 8.58235 2.24406 7.68513 2.31353 6.83878C2.35985 6.29767 2.56827 5.84906 2.95269 5.46519L4.53207 3.88811C4.75902 3.67537 4.99986 3.55975 5.23607 3.55975C5.52786 3.55975 5.76407 3.73549 5.91228 3.88349C5.91692 3.88811 5.92155 3.89274 5.92618 3.89736C6.20871 4.16098 6.47734 4.43385 6.75987 4.72522C6.90345 4.87321 7.05166 5.02121 7.19987 5.17383L8.46429 6.43642C8.95524 6.92665 8.95524 7.37989 8.46429 7.87012C8.32998 8.00425 8.20029 8.13837 8.06598 8.26786C7.67692 8.6656 7.3064 9.03559 6.90345 9.39633C6.89418 9.40558 6.88492 9.4102 6.88029 9.41945C6.48197 9.81719 6.55608 10.2057 6.63944 10.4693C6.64408 10.4832 6.64871 10.497 6.65334 10.5109C6.98218 11.3064 7.44534 12.0556 8.14934 12.9482L8.15398 12.9529C9.4323 14.5253 10.7801 15.7509 12.2668 16.6897C12.4567 16.81 12.6513 16.9071 12.8365 16.9996C13.0033 17.0829 13.1607 17.1615 13.295 17.2447C13.3136 17.254 13.3321 17.2679 13.3506 17.2771C13.5081 17.3557 13.6563 17.3927 13.8092 17.3927C14.1936 17.3927 14.4344 17.1522 14.5132 17.0736L16.0972 15.4919C16.2546 15.3347 16.5047 15.145 16.7965 15.145C17.0837 15.145 17.3199 15.3254 17.4635 15.4827C17.4681 15.4873 17.4681 15.4873 17.4727 15.4919L20.0248 18.0402C20.5018 18.5119 20.5018 18.9976 20.0294 19.4878Z" fill="url(#paint0_linear_401_188)" stroke="url(#paint1_linear_401_188)" stroke-width="0.25"/>
<path d="M12.8877 6.25591C14.1012 6.4594 15.2035 7.03288 16.0835 7.91161C16.9635 8.79033 17.5332 9.89105 17.7416 11.1028C17.7926 11.408 18.0566 11.6207 18.3576 11.6207C18.3947 11.6207 18.4271 11.6161 18.4642 11.6115C18.8069 11.556 19.0339 11.2323 18.9783 10.89C18.7282 9.42394 18.0334 8.08735 16.9728 7.02826C15.9122 5.96917 14.5736 5.27544 13.1054 5.02569C12.7627 4.97019 12.4431 5.19681 12.3829 5.53443C12.3227 5.87204 12.545 6.20041 12.8877 6.25591Z" fill="url(#paint2_linear_401_188)" stroke="url(#paint3_linear_401_188)" stroke-width="0.25"/>
<path d="M22.9468 10.7097C22.5346 8.29551 21.3953 6.0987 19.6445 4.3505C17.8938 2.60231 15.6938 1.46459 13.2761 1.05298C12.938 0.992852 12.6184 1.2241 12.5582 1.56171C12.5026 1.90395 12.7295 2.22307 13.0723 2.28319C15.2306 2.64855 17.199 3.67065 18.7645 5.22923C20.33 6.79243 21.3489 8.758 21.7148 10.9132C21.7658 11.2184 22.0298 11.4312 22.3308 11.4312C22.3679 11.4312 22.4003 11.4265 22.4374 11.4219C22.7755 11.371 23.0071 11.0473 22.9468 10.7097Z" fill="url(#paint4_linear_401_188)" stroke="url(#paint5_linear_401_188)" stroke-width="0.25"/>
<defs>
<linearGradient id="paint0_linear_401_188" x1="-0.396889" y1="12.6337" x2="22.6565" y2="12.6337" gradientUnits="userSpaceOnUse">
<stop stop-color="#8F7047"/>
<stop offset="0.509514" stop-color="#DABD9A"/>
<stop offset="1" stop-color="#A58A63"/>
</linearGradient>
<linearGradient id="paint1_linear_401_188" x1="-0.396889" y1="12.6337" x2="22.6565" y2="12.6337" gradientUnits="userSpaceOnUse">
<stop stop-color="#8F7047"/>
<stop offset="0.509514" stop-color="#DABD9A"/>
<stop offset="1" stop-color="#A58A63"/>
</linearGradient>
<linearGradient id="paint2_linear_401_188" x1="11.9101" y1="8.31904" x2="19.3173" y2="8.31904" gradientUnits="userSpaceOnUse">
<stop stop-color="#8F7047"/>
<stop offset="0.509514" stop-color="#DABD9A"/>
<stop offset="1" stop-color="#A58A63"/>
</linearGradient>
<linearGradient id="paint3_linear_401_188" x1="11.9101" y1="8.31904" x2="19.3173" y2="8.31904" gradientUnits="userSpaceOnUse">
<stop stop-color="#8F7047"/>
<stop offset="0.509514" stop-color="#DABD9A"/>
<stop offset="1" stop-color="#A58A63"/>
</linearGradient>
<linearGradient id="paint4_linear_401_188" x1="11.8213" y1="6.23731" x2="23.4767" y2="6.23731" gradientUnits="userSpaceOnUse">
<stop stop-color="#8F7047"/>
<stop offset="0.509514" stop-color="#DABD9A"/>
<stop offset="1" stop-color="#A58A63"/>
</linearGradient>
<linearGradient id="paint5_linear_401_188" x1="11.8213" y1="6.23731" x2="23.4767" y2="6.23731" gradientUnits="userSpaceOnUse">
<stop stop-color="#8F7047"/>
<stop offset="0.509514" stop-color="#DABD9A"/>
<stop offset="1" stop-color="#A58A63"/>
</linearGradient>
</defs>
</svg>
