<svg width="24" height="24" viewBox="0 0 24 24" fill="none" xmlns="http://www.w3.org/2000/svg">
<path d="M8.77043 20.2222C6.23568 20.2222 3.46748 19.5616 2 18.6769C3.25625 18.4978 5.37965 18.061 6.76932 17.0308L7.20289 16.7061L6.60256 16.303C4.94608 15.2168 -0.0122278 11.9582 3.16732 3.58229C4.8905 5.50831 6.64703 6.85205 8.42579 7.5799C9.55976 8.05021 9.97109 8.1062 10.438 8.16218L11.0495 8.24057L11.0606 7.81506C11.0717 6.84085 11.3719 5.91143 11.9166 5.11638C12.4614 4.32134 13.2285 3.70546 14.1178 3.34713C14.6959 3.11198 15.3074 3 15.93 3C16.2635 3 16.597 3.03359 16.9194 3.10078C17.8644 3.30234 18.7204 3.77265 19.3986 4.45571L19.5097 4.56769C19.5097 4.56769 20.2212 4.57889 20.3435 4.57889C20.7882 4.57889 21.2996 4.5229 22 4.20936C21.7332 5.44112 21.522 6.0458 20.9216 6.86324L20.8549 6.96402V7.0872C20.8549 17.2436 13.3174 19.5504 11.0161 20.0095C10.3491 20.155 9.59311 20.2222 8.77043 20.2222ZM3.68983 6.87444C3.03391 10.5137 4.24569 13.1676 7.49194 15.228L9.37076 16.415C9.40411 16.4374 9.43747 16.471 9.4597 16.5046C9.48194 16.5381 9.49305 16.5829 9.49305 16.6277C9.49305 16.6725 9.48193 16.7173 9.47082 16.7509C9.44858 16.7845 9.42635 16.8293 9.393 16.8517L6.84714 18.7217L7.89216 18.7889C8.19233 18.8113 8.4925 18.8113 8.78155 18.8113C9.51529 18.8113 10.1823 18.7553 10.7715 18.6321C16.3191 17.5124 19.4986 13.302 19.4986 7.0872C19.4986 6.39293 18.2868 4.39973 15.9744 4.39973C15.0517 4.39973 14.1845 4.75805 13.5286 5.40753C12.8727 6.057 12.5058 6.91923 12.4836 7.84865L12.4503 9.55071C12.4503 9.58431 12.4391 9.6291 12.428 9.66269C12.4169 9.69628 12.3947 9.71868 12.3613 9.75228C12.328 9.77467 12.2946 9.79707 12.2613 9.80826L12.1501 9.81946L10.4714 9.59551C8.37021 9.30436 6.30239 8.31896 4.32351 6.66168L3.82324 6.24736L3.68983 6.87444Z" fill="url(#paint0_linear_401_3579)"/>
<defs>
<linearGradient id="paint0_linear_401_3579" x1="-4" y1="3" x2="24.1191" y2="24.0674" gradientUnits="userSpaceOnUse">
<stop stop-color="#8F7047"/>
<stop offset="0.509514" stop-color="#DABD9A"/>
<stop offset="1" stop-color="#A58A63"/>
</linearGradient>
</defs>
</svg>
