<svg width="36" height="36" viewBox="0 0 36 36" fill="none" xmlns="http://www.w3.org/2000/svg">
<path d="M13.1556 30.3333C9.35353 30.3333 5.20122 29.3423 3 28.0154C4.88438 27.7466 8.06948 27.0916 10.154 25.5463L10.8043 25.0592L9.90384 24.4545C7.41912 22.8252 -0.0183415 17.9374 4.75097 5.37343C7.33574 8.26246 9.97054 10.2781 12.6387 11.3699C14.3396 12.0753 14.9566 12.1593 15.657 12.2433L16.5742 12.3609L16.5909 11.7226C16.6076 10.2613 17.0578 8.86714 17.8749 7.67458C18.6921 6.48201 19.8427 5.55819 21.1768 5.02069C22.0439 4.66796 22.9611 4.5 23.8949 4.5C24.3952 4.5 24.8955 4.55039 25.3791 4.65117C26.7966 4.95351 28.0806 5.65897 29.0978 6.68357L29.2646 6.85154C29.2646 6.85154 30.3318 6.86834 30.5153 6.86834C31.1823 6.86834 31.9494 6.78435 33 6.31404C32.5998 8.16168 32.2829 9.0687 31.3824 10.2949L31.2824 10.446V10.6308C31.2824 25.8654 19.9761 29.3255 16.5242 30.0142C15.5236 30.2326 14.3897 30.3333 13.1556 30.3333ZM5.53474 10.3117C4.55086 15.7706 6.36854 19.7514 11.2379 22.842L14.0561 24.6225C14.1062 24.656 14.1562 24.7064 14.1896 24.7568C14.2229 24.8072 14.2396 24.8744 14.2396 24.9416C14.2396 25.0088 14.2229 25.076 14.2062 25.1264C14.1729 25.1767 14.1395 25.2439 14.0895 25.2775L10.2707 28.0826L11.8382 28.1834C12.2885 28.2169 12.7387 28.217 13.1723 28.217C14.2729 28.217 15.2735 28.133 16.1573 27.9482C24.4786 26.2685 29.2479 19.953 29.2479 10.6308C29.2479 9.5894 27.4302 6.59959 23.9616 6.59959C22.5775 6.59959 21.2768 7.13708 20.2929 8.11129C19.3091 9.0855 18.7588 10.3788 18.7254 11.773L18.6754 14.3261C18.6754 14.3765 18.6587 14.4436 18.642 14.494C18.6253 14.5444 18.592 14.578 18.542 14.6284C18.4919 14.662 18.4419 14.6956 18.3919 14.7124L18.2251 14.7292L15.7071 14.3933C12.5553 13.9565 9.45358 12.4784 6.48527 9.99252L5.73485 9.37104L5.53474 10.3117Z" fill="white"/>
</svg>
