<svg width="24" height="24" viewBox="0 0 24 24" fill="none" xmlns="http://www.w3.org/2000/svg">
<path d="M12 20C11.9394 20 5.92929 19.9899 4.22222 19.5139C3.36364 19.2709 2.69697 18.562 2.46465 17.6608C2.0101 15.8582 2 12.0405 2 12C2 11.9595 2.0101 8.13165 2.46465 6.33924C2.69697 5.43797 3.36364 4.72911 4.22222 4.48608C5.92929 4.01013 11.9394 4 12 4C12.0606 4 18.0808 4.01013 19.7778 4.48608C20.6364 4.72911 21.303 5.43797 21.5354 6.33924C21.9899 8.13165 22 11.9595 22 12C22 12.0405 21.9899 15.8684 21.5354 17.6608C21.303 18.562 20.6263 19.2709 19.7778 19.5139C18.0808 19.9899 12.0606 20 12 20ZM12 5.36709C7.18182 5.36709 5.0101 5.68101 4.57576 5.80253C4.19192 5.91392 3.87879 6.25823 3.76768 6.68354C3.65657 7.10886 3.34343 8.9924 3.34343 12.0101C3.34343 15.0177 3.65657 16.9114 3.76768 17.3367C3.87879 17.762 4.19192 18.1063 4.57576 18.2177C5 18.3392 7.16162 18.6532 11.9899 18.6532C16.8182 18.6532 18.9798 18.3392 19.4141 18.2177C19.798 18.1063 20.1111 17.762 20.2222 17.3367C20.3333 16.9114 20.6465 15.0278 20.6465 12.0203C20.6465 9.01266 20.3333 7.12911 20.2222 6.69367C20.1111 6.26835 19.8081 5.92405 19.4141 5.81266C18.9899 5.68101 16.8283 5.36709 12 5.36709ZM10.2828 8.97215L15.4242 12L10.2828 15.0278V8.97215Z" fill="url(#paint0_linear_401_3636)"/>
<defs>
<linearGradient id="paint0_linear_401_3636" x1="-4" y1="4" x2="22.6021" y2="25.4533" gradientUnits="userSpaceOnUse">
<stop stop-color="#8F7047"/>
<stop offset="0.509514" stop-color="#DABD9A"/>
<stop offset="1" stop-color="#A58A63"/>
</linearGradient>
</defs>
</svg>
