<svg width="36" height="36" viewBox="0 0 36 36" fill="none" xmlns="http://www.w3.org/2000/svg">
<path d="M18 30C17.9091 30 8.89394 29.9848 6.33333 29.2709C5.04546 28.9063 4.04545 27.843 3.69697 26.4911C3.01515 23.7873 3 18.0608 3 18C3 17.9392 3.01515 12.1975 3.69697 9.50886C4.04545 8.15696 5.04546 7.09367 6.33333 6.72911C8.89394 6.01519 17.9091 6 18 6C18.0909 6 27.1212 6.01519 29.6667 6.72911C30.9545 7.09367 31.9545 8.15696 32.303 9.50886C32.9849 12.1975 33 17.9392 33 18C33 18.0608 32.9849 23.8025 32.303 26.4911C31.9545 27.843 30.9394 28.9063 29.6667 29.2709C27.1212 29.9848 18.0909 30 18 30ZM18 8.05063C10.7727 8.05063 7.51515 8.52152 6.86364 8.7038C6.28788 8.87089 5.81818 9.38734 5.65152 10.0253C5.48485 10.6633 5.01515 13.4886 5.01515 18.0152C5.01515 22.5266 5.48485 25.3671 5.65152 26.0051C5.81818 26.643 6.28788 27.1595 6.86364 27.3266C7.5 27.5089 10.7424 27.9797 17.9848 27.9797C25.2273 27.9797 28.4697 27.5089 29.1212 27.3266C29.697 27.1595 30.1667 26.643 30.3333 26.0051C30.5 25.3671 30.9697 22.5418 30.9697 18.0304C30.9697 13.519 30.5 10.6937 30.3333 10.0405C30.1667 9.40253 29.7121 8.88608 29.1212 8.71899C28.4849 8.52152 25.2424 8.05063 18 8.05063ZM15.4242 13.4582L23.1364 18L15.4242 22.5418V13.4582V13.4582Z" fill="white"/>
</svg>
